<svg height="100%" stroke-miterlimit="10" style="fill-rule:nonzero;clip-rule:evenodd;stroke-linecap:round;stroke-linejoin:round;" version="1.1" viewBox="0 0 841.995 595.35" width="100%" xml:space="preserve" xmlns="http://www.w3.org/2000/svg" xmlns:vectornator="http://vectornator.io" xmlns:xlink="http://www.w3.org/1999/xlink">
<defs/>
<g id="Layer-1" vectornator:layerName="Layer 1">
<path d="M548.964 80.1978C610.827 80.1978 678.456 100.478 718.671 147.047C737.252 168.565 746.557 193.824 746.586 218.931C746.601 247.278 734.789 275.431 711.12 297.853C689.231 318.58 661.279 332.614 632.729 344.134L629.579 345.399C626.363 346.701 623.09 348.161 621.062 350.808C619.535 352.783 618.87 355.216 618.293 357.594L618.186 358.039C612.171 383.007 601.124 404.33 586.377 422.315L586.364 422.315C560.098 454.362 522.007 475.796 479.566 488.343C447.064 497.956 411.996 502.364 377.696 502.364C320.005 502.364 267.05 489.595 225.567 468.287L225.552 468.271C218.326 464.585 211.439 460.607 204.951 456.407C162.701 429.061 136.688 391.714 136.688 350.542C136.688 272.051 231.244 207.469 352.522 199.542C366.045 132.094 448.833 80.1978 548.964 80.1978ZM235.307 82.4975C249.488 82.4975 260.984 90.5629 260.984 100.512C260.984 110.462 249.488 118.526 235.307 118.526C221.125 118.526 209.628 110.462 209.628 100.512C209.628 90.5629 221.125 82.4975 235.307 82.4975Z" fill="#000000" fill-opacity="0.04" fill-rule="evenodd" opacity="1" stroke="none"/>
<g opacity="1">
<path d="M256.504 169.354C256.528 169.317 256.552 169.28 256.576 169.243C258.513 166.324 261.701 166.534 264.789 166.389C268.639 166.207 272.483 165.819 276.128 164.49C282.052 162.33 288.007 159.193 294.516 159.96C299.478 160.544 302.35 163.961 302.229 168.952C302.223 169.193 302.211 169.434 302.194 169.675C302.18 169.883 304.557 171.516 304.807 171.752C305.934 172.817 307.036 174.068 307.763 175.446C311.193 181.94 308.039 189.691 304.483 195.371C304.308 195.651 302.408 198.393 302.443 198.427C301.032 197.048 300.334 196.638 298.295 193.196C299.894 191.941 300.509 189.777 300.313 188.502C300.049 186.8 299.095 185.379 295.037 186.535C294.339 185.759 293.496 183.541 292.85 181.692C292.455 180.565 292.296 179.544 292.236 178.746C287.579 181.175 283.494 182.392 280.695 183.043C272.201 185.02 258.53 186.314 255.732 175.276C255.229 173.292 255.412 171.08 256.504 169.354" fill="#000000" fill-rule="evenodd" opacity="1" stroke="none"/>
<path d="M303.141 194.578C303.631 194.591 304.018 194.997 304.006 195.487C303.947 197.854 303.491 200.28 302.53 202.686C300.948 206.657 298.544 209.478 295.776 211.594L295.664 211.678L295.664 223.996C295.664 224.237 295.566 224.466 295.395 224.632L295.327 224.691L286.264 231.857C285.956 232.101 285.528 232.111 285.21 231.891L285.139 231.836L276.732 224.671C276.557 224.521 276.447 224.309 276.425 224.082L276.421 223.996L276.421 215.928C276.421 215.438 276.818 215.041 277.308 215.041C277.769 215.041 278.147 215.392 278.19 215.842L278.194 215.928L278.194 223.586L285.735 230.014L293.89 223.566L293.891 211.232C293.891 210.98 293.998 210.741 294.184 210.574L294.257 210.515C296.977 208.541 299.352 205.871 300.883 202.029C301.761 199.828 302.179 197.609 302.233 195.443C302.245 194.954 302.652 194.567 303.141 194.578Z" fill="#000000" fill-rule="evenodd" opacity="1" stroke="none"/>
<path d="M294.534 223.143C294.977 223.018 295.437 223.253 295.601 223.674L295.628 223.755L299.754 238.338C299.962 239.074 299.208 239.697 298.535 239.387L298.466 239.352L285.717 232.179L273.121 239.35C272.443 239.736 271.647 239.122 271.817 238.385L271.837 238.311L276.46 223.729C276.609 223.262 277.107 223.003 277.574 223.151C278.013 223.291 278.268 223.74 278.173 224.182L278.151 224.265L274.212 236.687L285.276 230.39C285.519 230.251 285.812 230.237 286.066 230.347L286.149 230.388L297.461 236.752L293.922 224.238C293.796 223.794 294.032 223.334 294.453 223.17L294.534 223.143Z" fill="#000000" fill-rule="evenodd" opacity="1" stroke="none"/>
<path d="M276.912 221.056C277.351 220.838 277.883 221.016 278.101 221.455C278.32 221.893 278.141 222.425 277.703 222.644L276.36 223.303C275.038 223.944 273.316 224.76 271.001 225.845L253.981 233.787L253.235 234.143L252.866 234.661C251.498 236.542 248.453 240.396 242.652 247.634L231.741 261.243L230.119 263.285L230.487 263.738C232.124 265.74 233.812 267.731 235.556 269.712L236.432 270.701C238.644 273.182 240.892 275.584 243.175 277.914L243.456 278.199L250.472 269.408C251.01 268.735 252.095 269.147 252.051 270.007L247.676 354.857L300.589 354.857C301.05 354.857 301.429 355.209 301.472 355.659L301.476 355.744C301.476 356.205 301.124 356.584 300.674 356.627L300.589 356.631L246.743 356.631C246.235 356.631 245.831 356.205 245.857 355.698L250.137 272.671L244.219 280.086C243.888 280.5 243.27 280.533 242.897 280.157C240.254 277.496 237.658 274.741 235.108 271.882C232.74 269.224 230.47 266.547 228.293 263.85C228.033 263.528 228.031 263.068 228.287 262.743L232.701 257.202L244.229 242.825C248.818 237.077 251.083 234.168 251.903 232.95C251.992 232.818 252.114 232.713 252.256 232.645L256.491 230.648L270.238 224.244C273.424 222.751 275.481 221.769 276.912 221.056Z" fill="#000000" fill-rule="evenodd" opacity="1" stroke="none"/>
<path d="M293.968 220.24C294.156 219.819 294.632 219.617 295.06 219.762L295.14 219.793L321.212 231.461C321.37 231.532 321.504 231.647 321.596 231.792L321.639 231.866L340.432 268.522C340.615 268.879 340.535 269.311 340.245 269.578L340.179 269.633L338.458 270.939L338.388 270.998L323.668 282.184C323.271 282.485 322.711 282.399 322.42 282.008L322.372 281.936L314.689 269.196L317.763 323.737C317.763 324.226 317.366 324.623 316.876 324.623C316.415 324.623 316.036 324.272 315.993 323.822L312.717 265.728C312.667 264.833 313.812 264.451 314.317 265.151L314.362 265.22L323.38 280.174L337.248 269.637L337.316 269.58L338.515 268.67L320.204 232.953L294.415 221.412C293.994 221.223 293.792 220.748 293.937 220.32L293.968 220.24Z" fill="#000000" fill-rule="evenodd" opacity="1" stroke="none"/>
<path d="M337.852 269.4C338.227 269.4 338.547 269.632 338.677 269.96L338.687 269.99L346.878 289.656C347.774 291.805 347.654 294.24 346.559 296.286L346.45 296.483L311.404 357.655C309.561 360.872 305.596 362.173 302.216 360.698L302.045 360.62L301.435 360.335C299.956 359.645 299.3 357.911 299.929 356.422L299.984 356.298L303.796 348.282L301.182 348.283C299.705 348.283 298.499 347.119 298.434 345.658L298.431 345.533C298.431 344.446 299.07 343.466 300.054 343.023L300.174 342.972L308.743 339.596L316.05 323.405L316.068 323.36L330.346 291.688L323.921 280.744C323.688 280.347 323.799 279.842 324.165 279.577L324.237 279.53C324.634 279.297 325.139 279.409 325.404 279.775L325.451 279.846L332.107 291.186C332.237 291.406 332.264 291.671 332.186 291.911L332.151 291.999L317.699 324.056L317.684 324.096L310.212 340.655C310.129 340.839 309.985 340.988 309.807 341.079L309.728 341.115L300.825 344.622C300.45 344.77 300.204 345.131 300.204 345.533C300.204 346.043 300.597 346.463 301.097 346.506L301.182 346.509L305.2 346.509C305.826 346.509 306.246 347.135 306.031 347.706L306.001 347.777L301.586 357.06C301.302 357.658 301.534 358.367 302.102 358.685L302.186 358.728L302.796 359.014C305.327 360.196 308.331 359.282 309.781 356.915L309.865 356.774L344.911 295.601C345.799 294.05 345.945 292.187 345.314 290.522L345.241 290.338L337.034 270.633C337 270.552 336.978 270.467 336.97 270.38L336.966 270.286C336.966 269.797 337.363 269.4 337.852 269.4Z" fill="#000000" fill-rule="evenodd" opacity="1" stroke="none"/>
<path d="M180.816 231.346C180.98 231.017 181.328 230.827 181.688 230.859L181.771 230.871L202.922 234.816C204.37 235.07 205.636 235.933 206.401 237.181L206.49 237.333L224.887 269.817L230.011 264.693C230.336 264.368 230.85 264.348 231.198 264.632L231.265 264.693C231.59 265.018 231.61 265.532 231.326 265.88L231.265 265.947L225.318 271.895C224.924 272.289 224.277 272.223 223.966 271.779L223.919 271.705L204.947 238.207C204.481 237.384 203.689 236.8 202.762 236.592L202.607 236.561L182.103 232.737L181.15 234.643L199.891 242.678C200.074 242.757 200.224 242.894 200.319 243.067L200.356 243.143L217.654 283.398C220.182 289.273 227.818 290.74 232.344 286.276L232.48 286.139L241.2 277.187C241.542 276.837 242.104 276.829 242.454 277.171C242.783 277.491 242.81 278.005 242.531 278.357L242.471 278.425L233.751 287.376C228.416 292.857 219.263 291.228 216.119 284.31L216.025 284.098L198.867 244.169L179.586 235.903C179.143 235.713 178.938 235.208 179.108 234.768L179.142 234.692L180.816 231.346Z" fill="#000000" fill-rule="evenodd" opacity="1" stroke="none"/>
<path d="M314.541 349.501L314.627 349.504C315.086 349.545 315.431 349.93 315.434 350.381L315.431 350.467L300.201 520.199C300.162 520.628 299.823 520.962 299.403 521.003L299.317 521.007L283.692 521.007C283.244 521.007 282.871 520.674 282.813 520.238L282.806 520.155L277.296 382.467L263.299 438.927L256.547 520.193C256.511 520.626 256.169 520.965 255.744 521.003L255.664 521.007L239.477 521.007C239.016 521.007 238.637 520.655 238.594 520.205L238.59 520.12L238.59 435.715L238.598 435.596L249.494 355.624C249.56 355.139 250.007 354.799 250.492 354.865C250.949 354.927 251.277 355.327 251.259 355.778L251.251 355.863L240.363 435.774L240.363 519.233L254.847 519.233L261.538 438.71C261.54 438.686 261.543 438.663 261.546 438.639L261.561 438.57L277.073 375.998C277.313 375.031 278.694 375.143 278.813 376.087L278.82 376.175L284.544 519.233L298.507 519.233L313.664 350.308C313.703 349.878 314.043 349.547 314.457 349.505L314.541 349.501Z" fill="#000000" fill-rule="evenodd" opacity="1" stroke="none"/>
<path d="M296.019 519.233C296.48 519.233 296.858 519.585 296.901 520.034L296.905 520.12L296.905 530.27L303.178 539.252C303.265 539.376 303.318 539.52 303.334 539.67L303.338 539.76L303.338 546.404C303.338 546.865 302.987 547.244 302.537 547.287L302.451 547.291L279.099 547.291C278.638 547.291 278.259 546.94 278.216 546.49L278.212 546.404L278.212 539.76C278.212 539.574 278.271 539.393 278.378 539.243L278.436 539.171L286.009 530.643L286.01 520.12C286.01 519.659 286.361 519.28 286.811 519.237L286.896 519.233C287.357 519.233 287.736 519.585 287.779 520.034L287.783 520.12L287.783 530.98C287.783 531.166 287.725 531.347 287.617 531.497L287.559 531.569L279.986 540.096L279.986 545.517L301.564 545.517L301.564 540.039L295.292 531.057C295.205 530.933 295.152 530.789 295.136 530.64L295.132 530.549L295.132 520.12C295.132 519.63 295.529 519.233 296.019 519.233Z" fill="#000000" fill-rule="evenodd" opacity="1" stroke="none"/>
<path d="M302.45 538.875C302.94 538.875 303.337 539.272 303.337 539.762C303.337 540.223 302.985 540.602 302.536 540.645L302.45 540.649L279.097 540.649C278.608 540.649 278.211 540.252 278.211 539.762C278.211 539.301 278.562 538.922 279.012 538.879L279.097 538.875L302.45 538.875Z" fill="#000000" fill-rule="evenodd" opacity="1" stroke="none"/>
<path d="M251.568 519.233C252.029 519.233 252.408 519.585 252.451 520.034L252.455 520.12L252.454 530.27L258.727 539.252C258.814 539.376 258.867 539.52 258.882 539.67L258.887 539.76L258.887 546.404C258.887 546.865 258.535 547.244 258.086 547.287L258 547.291L234.648 547.291C234.187 547.291 233.808 546.94 233.765 546.49L233.761 546.404L233.761 539.76C233.761 539.584 233.813 539.413 233.91 539.268L233.963 539.197L240.967 530.663L240.968 520.12C240.968 519.659 241.32 519.28 241.769 519.237L241.855 519.233C242.316 519.233 242.694 519.585 242.737 520.034L242.741 520.12L242.741 530.98C242.741 531.156 242.689 531.327 242.592 531.472L242.54 531.543L235.534 540.078L235.534 545.517L257.113 545.517L257.113 540.038L250.841 531.057C250.754 530.933 250.701 530.789 250.686 530.64L250.681 530.549L250.681 520.12C250.681 519.63 251.078 519.233 251.568 519.233Z" fill="#000000" fill-rule="evenodd" opacity="1" stroke="none"/>
<path d="M258 538.875C258.489 538.875 258.886 539.272 258.886 539.762C258.886 540.223 258.535 540.602 258.085 540.645L258 540.649L234.647 540.649C234.157 540.649 233.76 540.252 233.76 539.762C233.76 539.301 234.112 538.922 234.561 538.879L234.647 538.875L258 538.875Z" fill="#000000" fill-rule="evenodd" opacity="1" stroke="none"/>
<path d="M267.106 181.065C267.234 180.593 267.721 180.313 268.194 180.442C268.667 180.57 268.946 181.057 268.817 181.53C266.406 190.408 266.3 199.133 269.026 206.127C270.41 209.678 272.746 212.618 275.667 214.273C278.738 216.014 282.922 215.918 287.261 214.379C287.723 214.215 288.23 214.456 288.394 214.918C288.557 215.38 288.316 215.887 287.854 216.05C283.076 217.745 278.385 217.853 274.793 215.816C271.491 213.945 268.898 210.681 267.374 206.772C264.492 199.379 264.603 190.28 267.106 181.065Z" fill="#000000" fill-rule="evenodd" opacity="1" stroke="none"/>
<path d="M468.624 403.713L309.762 403.713L313.653 364.943L468.624 364.943L468.624 403.713Z" fill="#000000" fill-rule="evenodd" opacity="1" stroke="none"/>
<path d="M182.309 231.551C182.309 236.909 177.966 241.252 172.608 241.252C167.25 241.252 162.907 236.909 162.907 231.551C162.907 226.193 167.25 221.85 172.608 221.85C177.966 221.85 182.309 226.193 182.309 231.551" fill="#000000" fill-rule="evenodd" opacity="1" stroke="none"/>
<path d="M173 234.037C173.461 234.037 173.84 234.389 173.883 234.839L173.887 234.924L173.887 314.477C173.887 314.938 173.535 315.317 173.085 315.36L173 315.364L131.277 315.364C130.816 315.364 130.437 315.012 130.394 314.563L130.39 314.477L130.39 269.787C130.39 269.297 130.787 268.9 131.277 268.9C131.738 268.9 132.117 269.252 132.16 269.701L132.164 269.787L132.163 313.59L172.113 313.59L172.113 234.924C172.113 234.463 172.465 234.084 172.915 234.041L173 234.037Z" fill="#000000" fill-rule="evenodd" opacity="1" stroke="none"/>
<path d="M121.387 264.989L131.707 247.339L141.886 264.989L121.387 264.989Z" fill="#000000" fill-rule="evenodd" opacity="1" stroke="none"/>
<path d="M171.624 199.274C172.085 199.274 172.464 199.625 172.507 200.075L172.511 200.161L172.511 213.313C172.511 213.803 172.114 214.2 171.624 214.2C171.163 214.2 170.784 213.848 170.741 213.398L170.737 213.313L170.737 200.161C170.737 199.671 171.134 199.274 171.624 199.274Z" fill="#000000" fill-rule="evenodd" opacity="1" stroke="none"/>
<path d="M191.197 206.172C191.543 205.826 192.105 205.826 192.451 206.172C192.776 206.497 192.796 207.01 192.512 207.359L192.451 207.426L181.771 218.107C181.424 218.453 180.863 218.453 180.516 218.107C180.192 217.782 180.172 217.268 180.456 216.92L180.516 216.852L191.197 206.172Z" fill="#000000" fill-rule="evenodd" opacity="1" stroke="none"/>
<path d="M414.056 205.912C414.517 205.912 414.896 206.264 414.939 206.713L414.943 206.799L414.943 231.161C414.943 231.622 414.591 232.001 414.141 232.044L414.056 232.048L338.195 232.048C337.705 232.048 337.308 231.651 337.308 231.161C337.308 230.7 337.66 230.322 338.11 230.279L338.195 230.275L413.169 230.274L413.169 207.685L314.547 207.685C314.086 207.685 313.707 207.334 313.664 206.884L313.66 206.799C313.66 206.338 314.012 205.959 314.462 205.916L314.547 205.912L414.056 205.912Z" fill="#000000" fill-rule="evenodd" opacity="1" stroke="none"/>
<path d="M414.056 230.274C414.517 230.274 414.896 230.626 414.939 231.076L414.943 231.161L414.943 323.737C414.943 324.198 414.591 324.576 414.142 324.619L414.056 324.623L341.043 324.623C340.553 324.623 340.156 324.226 340.156 323.737C340.156 323.276 340.508 322.897 340.958 322.854L341.043 322.85L413.169 322.85L413.17 231.161C413.17 230.7 413.521 230.321 413.971 230.279L414.056 230.274Z" fill="#000000" fill-rule="evenodd" opacity="1" stroke="none"/>
<path d="M396.286 214.25C396.611 213.926 397.125 213.905 397.473 214.19L397.54 214.25L405.095 221.805C405.441 222.151 405.441 222.713 405.095 223.059C404.77 223.383 404.256 223.404 403.908 223.12L403.841 223.059L396.286 215.505C395.94 215.158 395.94 214.597 396.286 214.25Z" fill="#000000" fill-rule="evenodd" opacity="1" stroke="none"/>
<path d="M403.841 214.25C404.187 213.904 404.749 213.904 405.095 214.25C405.42 214.575 405.44 215.089 405.156 215.437L405.095 215.505L397.541 223.059C397.194 223.405 396.633 223.405 396.286 223.059C395.962 222.734 395.942 222.22 396.226 221.872L396.286 221.805L403.841 214.25Z" fill="#000000" fill-rule="evenodd" opacity="1" stroke="none"/>
<path d="M386.748 256.722C386.748 258.874 385.003 260.619 382.851 260.619C380.699 260.619 378.954 258.874 378.954 256.722C378.954 254.57 380.699 252.825 382.851 252.825C385.003 252.825 386.748 254.57 386.748 256.722" fill="#000000" fill-rule="evenodd" opacity="1" stroke="none"/>
<path d="M367.092 256.722C367.092 258.874 365.347 260.619 363.195 260.619C361.043 260.619 359.298 258.874 359.298 256.722C359.298 254.57 361.043 252.825 363.195 252.825C365.347 252.825 367.092 254.57 367.092 256.722" fill="#000000" fill-rule="evenodd" opacity="1" stroke="none"/>
<path d="M347.436 256.722C347.436 258.874 345.692 260.619 343.54 260.619C341.388 260.619 339.643 258.874 339.643 256.722C339.643 254.57 341.388 252.825 343.54 252.825C345.692 252.825 347.436 254.57 347.436 256.722" fill="#000000" fill-rule="evenodd" opacity="1" stroke="none"/>
<path d="M386.748 276.066C386.748 278.219 385.003 279.963 382.851 279.963C380.699 279.963 378.954 278.219 378.954 276.066C378.954 273.914 380.699 272.17 382.851 272.17C385.003 272.17 386.748 273.914 386.748 276.066" fill="#000000" fill-rule="evenodd" opacity="1" stroke="none"/>
<path d="M367.092 276.066C367.092 278.219 365.347 279.963 363.195 279.963C361.043 279.963 359.298 278.219 359.298 276.066C359.298 273.914 361.043 272.17 363.195 272.17C365.347 272.17 367.092 273.914 367.092 276.066" fill="#000000" fill-rule="evenodd" opacity="1" stroke="none"/>
<path d="M347.436 276.066C347.436 278.219 345.692 279.963 343.54 279.963C341.388 279.963 339.643 278.219 339.643 276.066C339.643 273.914 341.388 272.17 343.54 272.17C345.692 272.17 347.436 273.914 347.436 276.066" fill="#000000" fill-rule="evenodd" opacity="1" stroke="none"/>
<path d="M386.748 295.41C386.748 297.563 385.003 299.307 382.851 299.307C380.699 299.307 378.954 297.563 378.954 295.41C378.954 293.258 380.699 291.513 382.851 291.513C385.003 291.513 386.748 293.258 386.748 295.41" fill="#000000" fill-rule="evenodd" opacity="1" stroke="none"/>
<path d="M367.092 295.41C367.092 297.563 365.347 299.307 363.195 299.307C361.043 299.307 359.298 297.563 359.298 295.41C359.298 293.258 361.043 291.513 363.195 291.513C365.347 291.513 367.092 293.258 367.092 295.41" fill="#000000" fill-rule="evenodd" opacity="1" stroke="none"/>
<path d="M476.199 253.82C478.617 253.82 480.619 254.512 482.415 255.842C483.7 256.794 484.567 257.723 486.293 259.845L486.83 260.504C490.037 264.396 491.847 265.644 495.36 265.644C495.849 265.644 496.246 266.041 496.246 266.531C496.246 267.021 495.849 267.418 495.36 267.418C492.941 267.418 490.939 266.726 489.144 265.396L488.892 265.206C487.739 264.315 486.876 263.373 485.266 261.393L484.728 260.734C481.522 256.841 479.711 255.594 476.199 255.594C472.686 255.594 470.876 256.841 467.67 260.734L466.798 261.802C465.289 263.639 464.454 264.508 463.254 265.396C461.458 266.726 459.457 267.418 457.038 267.418C454.62 267.418 452.619 266.726 450.823 265.396L450.571 265.206C449.418 264.315 448.556 263.373 446.945 261.393L446.77 261.177C443.334 256.936 441.522 255.594 437.88 255.594C434.303 255.594 432.491 256.888 429.172 260.953L428.48 261.802C426.971 263.639 426.136 264.508 424.936 265.396C423.141 266.726 421.139 267.418 418.721 267.418C416.303 267.418 414.301 266.726 412.506 265.396L412.254 265.206C411.101 264.315 410.239 263.373 408.628 261.393L408.27 260.952L407.914 260.52C404.817 256.796 403.01 255.594 399.563 255.594C399.074 255.594 398.677 255.197 398.677 254.707C398.677 254.217 399.074 253.82 399.563 253.82C401.981 253.82 403.983 254.512 405.778 255.842L406.03 256.032C407.142 256.891 407.983 257.797 409.486 259.636L409.831 260.06C413.267 264.302 415.079 265.644 418.721 265.644C422.233 265.644 424.043 264.397 427.249 260.504L428.296 259.223C429.696 257.531 430.512 256.695 431.664 255.842C433.46 254.512 435.461 253.82 437.88 253.82C440.298 253.82 442.3 254.512 444.095 255.842C445.38 256.794 446.247 257.723 447.973 259.845L448.51 260.504C451.716 264.397 453.526 265.644 457.038 265.644C460.551 265.644 462.361 264.396 465.567 260.504L466.598 259.243C468.008 257.537 468.826 256.698 469.983 255.842C471.779 254.512 473.78 253.82 476.199 253.82Z" fill="#000000" fill-rule="evenodd" opacity="1" stroke="none"/>
<path d="M476.199 274.588C478.617 274.588 480.619 275.28 482.415 276.61L482.667 276.8C483.696 277.595 484.494 278.431 485.8 280.011L486.83 281.272C490.037 285.165 491.847 286.412 495.36 286.412C495.849 286.412 496.246 286.809 496.246 287.299C496.246 287.789 495.849 288.186 495.36 288.186C492.941 288.186 490.939 287.494 489.144 286.164L488.892 285.974C487.739 285.083 486.876 284.141 485.266 282.161L485.09 281.945C481.653 277.704 479.841 276.362 476.199 276.362C472.621 276.362 470.81 277.656 467.49 281.721L466.798 282.57C465.289 284.407 464.454 285.276 463.254 286.164C461.458 287.494 459.457 288.186 457.038 288.186C454.62 288.186 452.619 287.494 450.823 286.164L450.571 285.974C449.418 285.083 448.556 284.141 446.945 282.161L446.77 281.945C443.334 277.704 441.522 276.362 437.88 276.362C434.303 276.362 432.491 277.656 429.172 281.721L428.48 282.57C426.971 284.407 426.136 285.276 424.936 286.164C423.141 287.494 421.139 288.186 418.721 288.186C416.303 288.186 414.301 287.494 412.506 286.164L412.254 285.974C411.101 285.083 410.239 284.141 408.628 282.161L408.27 281.72L407.914 281.288C404.817 277.564 403.01 276.362 399.563 276.362C399.074 276.362 398.677 275.965 398.677 275.475C398.677 274.985 399.074 274.588 399.563 274.588C401.981 274.588 403.983 275.28 405.778 276.61L406.03 276.8C407.142 277.659 407.983 278.565 409.486 280.404L409.831 280.829C413.267 285.07 415.079 286.412 418.721 286.412C422.233 286.412 424.043 285.165 427.249 281.272L428.296 279.991C429.696 278.299 430.512 277.463 431.664 276.61C433.46 275.28 435.461 274.588 437.88 274.588C440.298 274.588 442.3 275.28 444.095 276.61L444.347 276.8C445.5 277.691 446.362 278.633 447.973 280.613L448.51 281.272C451.716 285.165 453.526 286.412 457.038 286.412C460.551 286.412 462.361 285.165 465.567 281.272L466.598 280.011C468.008 278.305 468.826 277.466 469.983 276.61C471.779 275.28 473.78 274.588 476.199 274.588Z" fill="#000000" fill-rule="evenodd" opacity="1" stroke="none"/>
<path d="M492.463 545.518C492.952 545.518 493.349 545.915 493.349 546.404C493.349 546.865 492.998 547.244 492.548 547.287L492.463 547.291L87.984 547.291C87.4942 547.291 87.0972 546.894 87.0972 546.404C87.0972 545.944 87.4489 545.565 87.8986 545.522L87.984 545.518L492.463 545.518Z" fill="#000000" fill-rule="evenodd" opacity="1" stroke="none"/>
<path d="M234.647 546.405L258 546.405L258 539.763L234.647 539.763L234.647 546.405Z" fill="#000000" fill-rule="evenodd" opacity="1" stroke="none"/>
<path d="M279.098 546.405L302.451 546.405L302.451 539.763L279.098 539.763L279.098 546.405Z" fill="#000000" fill-rule="evenodd" opacity="1" stroke="none"/>
<path d="M347.856 378.996C348.186 378.64 348.736 378.619 349.092 378.933L349.157 378.996L357.275 387.754L365.394 378.996C365.725 378.64 366.274 378.619 366.631 378.933L366.695 378.996L374.814 387.754L382.936 378.996C383.266 378.64 383.816 378.619 384.172 378.933L384.236 378.996L392.355 387.754L400.476 378.996C400.806 378.64 401.356 378.619 401.712 378.933L401.777 378.996L409.895 387.753L418.02 378.996C418.35 378.64 418.9 378.619 419.256 378.933L419.32 378.996L428.095 388.455C428.428 388.814 428.407 389.375 428.048 389.708C427.711 390.02 427.197 390.021 426.859 389.724L426.794 389.661L418.669 380.902L410.545 389.661C410.215 390.017 409.665 390.038 409.309 389.724L409.245 389.661L401.126 380.902L393.005 389.661C392.675 390.017 392.125 390.038 391.769 389.724L391.704 389.661L383.585 380.902L375.465 389.661C375.134 390.017 374.585 390.038 374.229 389.724L374.164 389.661L366.045 380.902L357.925 389.661C357.595 390.017 357.045 390.038 356.689 389.724L356.625 389.661L348.506 380.903L340.386 389.661C340.056 390.017 339.506 390.038 339.15 389.724L339.086 389.661L330.316 380.202C329.983 379.843 330.005 379.282 330.364 378.949C330.7 378.636 331.215 378.636 331.552 378.933L331.617 378.996L339.736 387.754L347.856 378.996ZM447.646 388.115C448.136 388.115 448.533 388.512 448.533 389.002C448.533 389.463 448.181 389.842 447.731 389.885L447.646 389.889L435.924 389.889C435.434 389.889 435.037 389.492 435.037 389.002C435.037 388.541 435.389 388.162 435.838 388.119L435.924 388.115L447.646 388.115Z" fill="none" fill-rule="evenodd" opacity="1" stroke="#ffffff" stroke-linecap="round" stroke-linejoin="round" stroke-width="3"/>
<path d="M277.477 215.977C278.74 216.27 280.654 216.559 282.96 216.317C285.019 216.1 286.667 215.536 287.792 215.051C287.327 216.066 286.083 218.422 283.385 220.211C280.877 221.874 278.425 222.176 277.308 222.245C277.364 220.155 277.42 218.066 277.477 215.977" fill="#000000" fill-rule="evenodd" opacity="1" stroke="none"/>
<path d="M287.44 214.237C286.064 214.831 284.553 215.258 282.867 215.435C280.999 215.631 279.279 215.485 277.677 215.113C277.131 214.986 276.605 215.392 276.59 215.953L276.421 222.221C276.407 222.742 276.843 223.162 277.362 223.13C279.495 222.998 281.695 222.396 283.875 220.95C286.204 219.406 287.66 217.469 288.598 215.42C288.936 214.681 288.186 213.915 287.44 214.237ZM285.826 216.678L285.775 216.749C285.043 217.745 284.104 218.67 282.895 219.472L282.649 219.631C281.171 220.561 279.682 221.053 278.221 221.262L278.335 217.052L278.557 217.089C279.969 217.31 281.462 217.366 283.053 217.199C283.928 217.107 284.762 216.954 285.557 216.75L285.826 216.678Z" fill="#000000" fill-rule="evenodd" opacity="1" stroke="none"/>
<g opacity="1">
<path d="M434.746 466.452C434.746 471.81 430.402 476.154 425.045 476.154C419.687 476.154 415.344 471.81 415.344 466.452C415.344 461.094 419.687 456.752 425.045 456.752C430.402 456.752 434.746 461.094 434.746 466.452" fill="#000000" fill-rule="evenodd" opacity="1" stroke="none"/>
<path d="M428.554 532.245L447.554 532.245L447.554 513.245L428.554 513.245L428.554 532.245Z" fill="#000000" fill-rule="evenodd" opacity="1" stroke="none"/>
<path d="M360.821 430.585L434.746 430.585L434.746 417.648L360.821 417.648L360.821 430.585Z" fill="#000000" fill-rule="evenodd" opacity="1" stroke="none"/>
<path d="M373.052 475.152L383.373 457.503L393.552 475.152L373.052 475.152Z" fill="#000000" fill-rule="evenodd" opacity="1" stroke="none"/>
<path d="M446.723 408.775C447.184 408.775 447.563 409.127 447.606 409.576L447.61 409.662L447.61 489.215C447.61 489.676 447.258 490.054 446.809 490.097L446.723 490.101L405 490.101C404.539 490.101 404.16 489.75 404.117 489.3L404.113 489.215L404.113 445.411L362.299 445.411L362.299 521.859L438.053 521.859C438.514 521.859 438.893 522.21 438.936 522.66L438.94 522.746C438.94 523.207 438.588 523.585 438.139 523.628L438.053 523.632L361.412 523.632C360.951 523.632 360.572 523.281 360.529 522.831L360.525 522.746L360.525 444.524C360.525 444.063 360.877 443.685 361.327 443.642L361.412 443.638L405 443.638C405.461 443.638 405.84 443.989 405.883 444.439L405.887 444.524L405.887 488.328L445.836 488.328L445.836 409.662C445.836 409.201 446.188 408.822 446.638 408.779L446.723 408.775Z" fill="#000000" fill-rule="evenodd" opacity="1" stroke="none"/>
</g>
</g>
<g opacity="1">
<path d="M551.051 294.106C551.768 294.106 552.356 294.662 552.408 295.366L552.412 295.468L552.412 304.792C552.412 305.543 551.802 306.153 551.051 306.153C550.333 306.153 549.745 305.598 549.693 304.893L549.689 304.792L549.689 295.468C549.689 294.716 550.299 294.106 551.051 294.106Z" fill="#000000" fill-rule="evenodd" opacity="1" stroke="none"/>
<path d="M493.288 329.431L673.859 329.431L673.859 303.854L493.288 303.854L493.288 329.431Z" fill="#000000" fill-rule="evenodd" opacity="1" stroke="none"/>
<path d="M650.054 171.234L758.33 171.234L758.33 145.656L650.054 145.656L650.054 171.234Z" fill="#000000" fill-rule="evenodd" opacity="1" stroke="none"/>
<g opacity="1">
<path d="M719.752 113.507C720.27 113.507 720.706 113.895 720.766 114.409C721.286 118.841 721.173 123.451 720.172 128.259C718.265 137.422 713.876 144.512 708.312 150.208C707.918 150.612 707.271 150.619 706.868 150.225C706.464 149.831 706.457 149.185 706.851 148.781C712.166 143.34 716.356 136.571 718.173 127.843C719.049 123.63 719.211 119.576 718.845 115.664L718.833 115.549L668.61 115.549L668.599 115.663C668.249 119.402 668.381 123.276 669.161 127.294L669.271 127.843C671.088 136.571 675.278 143.34 680.593 148.781C680.987 149.185 680.98 149.831 680.576 150.225C680.173 150.619 679.526 150.612 679.132 150.208C673.568 144.512 669.179 137.422 667.272 128.259C666.271 123.449 666.157 118.836 666.678 114.409C666.735 113.927 667.121 113.556 667.596 113.511L667.692 113.507L719.752 113.507Z" fill="#000000" fill-rule="evenodd" opacity="1" stroke="none"/>
<path d="M662.135 79.1731C663.614 77.2841 665.759 77.5672 667.812 79.1009C674.96 84.4398 680.385 93.6831 684.541 105.496C685.521 108.289 686.397 111.22 687.155 114.286C687.291 114.833 686.957 115.387 686.41 115.522C685.862 115.658 685.309 115.324 685.173 114.776C684.43 111.774 683.572 108.905 682.614 106.173C678.581 94.7094 673.339 85.7783 666.59 80.737C665.309 79.7804 664.352 79.654 663.744 80.4312C663.423 80.8418 663.223 81.4019 663.054 82.2816C662.433 85.5269 662.752 89.1024 663.877 92.8971C665.132 97.1286 667.057 101.316 670.072 106.77C671.403 109.178 672.794 111.535 674.355 113.982C674.658 114.457 674.519 115.089 674.043 115.392C673.568 115.695 672.937 115.556 672.633 115.08C671.048 112.595 669.636 110.202 668.285 107.758L667.72 106.728C664.96 101.647 663.142 97.6037 661.919 93.4775C660.708 89.3913 660.36 85.4948 661.048 81.8971C661.273 80.7257 661.569 79.8975 662.135 79.1731Z" fill="#000000" fill-rule="evenodd" opacity="1" stroke="none"/>
<path d="M687.071 71.3878C688.721 69.1238 690.635 68.0559 692.722 68.8949C695.003 69.8112 696.189 72.1291 696.748 75.5337C696.867 76.2545 696.955 77.0074 697.026 77.8532L697.058 78.2508L697.167 79.8396C697.857 90.0206 697.574 100.218 696.477 114.609C696.434 115.171 695.943 115.592 695.381 115.549C694.819 115.506 694.397 115.016 694.44 114.453L694.606 112.23C695.54 99.3315 695.768 89.8673 695.164 80.5075L695.067 79.0404C695.042 78.6583 695.018 78.3392 694.991 78.0254C694.924 77.2289 694.842 76.5271 694.733 75.865C694.278 73.098 693.392 71.3646 691.961 70.7897C690.087 70.0365 687.817 73.1512 686.372 77.2534C684.723 81.9365 684.04 87.1453 684.044 93.515L684.051 94.5792C684.079 97.0541 684.185 99.3395 684.429 103.178L684.597 105.767C684.634 106.33 684.207 106.816 683.645 106.853C683.082 106.889 682.596 106.463 682.559 105.9L682.323 102.218C682.111 98.7495 682.022 96.5798 682.005 94.1119C681.956 87.2599 682.657 81.6547 684.445 76.5749C685.073 74.7936 685.996 72.8636 687.071 71.3878Z" fill="#000000" fill-rule="evenodd" opacity="1" stroke="none"/>
<path d="M716.779 96.8601C718.548 96.646 719.972 97.3106 720.593 98.9923C720.907 99.8333 720.928 100.711 720.766 101.847C720.498 103.651 719.942 105.445 719.052 107.615C717.965 110.257 716.679 112.761 715.207 115.078C714.905 115.554 714.274 115.695 713.798 115.393C713.322 115.09 713.181 114.459 713.483 113.983C714.89 111.769 716.122 109.372 717.164 106.839C717.996 104.81 718.506 103.162 718.745 101.552C718.862 100.731 718.849 100.158 718.679 99.7035C718.421 99.0057 717.932 98.7776 717.024 98.8874C716.177 98.99 715.132 99.4046 714.143 99.9672C712.179 101.09 710.379 102.48 708.823 104.079C708.43 104.483 707.784 104.492 707.379 104.098C706.975 103.705 706.967 103.059 707.36 102.654C709.049 100.918 711.001 99.4114 713.132 98.1932C714.337 97.5074 715.612 97.0013 716.779 96.8601Z" fill="#000000" fill-rule="evenodd" opacity="1" stroke="none"/>
<path d="M706.291 79.8748C707.856 78.714 709.43 78.44 710.769 79.5494C711.926 80.5062 712.24 81.8221 712.383 84.2181C712.732 90.0762 711.604 95.9444 709.059 103.691C708.718 104.709 708.376 105.712 708.033 106.698L706.173 111.959L706.113 112.118C705.919 112.647 705.333 112.919 704.803 112.725C704.274 112.531 704.002 111.944 704.196 111.415L704.282 111.188L705.765 107.001C706.218 105.71 706.671 104.39 707.121 103.048C709.591 95.5303 710.675 89.8884 710.344 84.3396C710.237 82.5453 710.004 81.5664 709.467 81.1224C709.01 80.744 708.405 80.8492 707.508 81.5149C706.746 82.0801 706.079 82.805 705.153 83.9585C703.904 85.5077 702.842 87.266 701.62 89.6899L701.426 90.0782C699.993 92.9563 698.654 96.0407 697.244 99.6399C697.038 100.165 696.446 100.424 695.921 100.218C695.396 100.013 695.137 99.4201 695.342 98.8951C696.773 95.2436 698.136 92.1057 699.598 89.1691C700.961 86.4223 702.138 84.4448 703.561 82.6784C704.592 81.3943 705.346 80.5765 706.291 79.8748Z" fill="#000000" fill-rule="evenodd" opacity="1" stroke="none"/>
<path d="M673.093 123.034C673.362 122.888 673.68 122.872 673.96 122.985L674.063 123.034L678.618 125.494L683.17 123.034C683.439 122.888 683.757 122.872 684.037 122.985L684.141 123.034L688.693 125.493L693.245 123.034C693.514 122.888 693.833 122.872 694.113 122.985L694.216 123.034L698.765 125.493L703.316 123.034C703.585 122.888 703.904 122.872 704.184 122.985L704.287 123.034L708.835 125.493L713.384 123.034C713.653 122.888 713.972 122.872 714.252 122.985L714.356 123.034L719.391 125.757C719.888 126.025 720.072 126.645 719.804 127.141C719.552 127.607 718.988 127.799 718.509 127.596L718.42 127.553L713.87 125.093L709.322 127.553C709.052 127.699 708.734 127.715 708.453 127.602L708.35 127.553L703.801 125.093L699.251 127.553C698.982 127.699 698.663 127.715 698.383 127.602L698.28 127.553L693.729 125.093L689.179 127.553C688.91 127.699 688.592 127.715 688.311 127.602L688.208 127.553L683.655 125.092L679.103 127.553C678.834 127.699 678.516 127.715 678.236 127.602L678.133 127.553L673.578 125.093L669.023 127.553C668.556 127.806 667.98 127.657 667.69 127.225L667.64 127.14C667.387 126.673 667.536 126.097 667.968 125.807L668.053 125.757L673.093 123.034Z" fill="#000000" fill-rule="evenodd" opacity="1" stroke="none"/>
<path d="M675.152 132.404C675.447 132.226 675.809 132.21 676.116 132.355L676.206 132.404L680.195 134.808L684.182 132.404C684.477 132.226 684.839 132.21 685.147 132.356L685.237 132.404L689.219 134.808L693.205 132.404C693.5 132.226 693.862 132.21 694.169 132.356L694.26 132.404L698.243 134.808L702.227 132.404C702.522 132.226 702.885 132.21 703.192 132.356L703.283 132.404L707.265 134.808L711.248 132.404C711.543 132.226 711.906 132.21 712.213 132.356L712.304 132.404L716.811 135.127C717.293 135.419 717.448 136.046 717.157 136.529C716.882 136.983 716.31 137.147 715.841 136.922L715.755 136.875L711.775 134.471L707.794 136.875C707.499 137.053 707.136 137.07 706.829 136.924L706.738 136.875L702.754 134.471L698.771 136.875C698.476 137.053 698.113 137.07 697.806 136.924L697.716 136.875L693.732 134.471L689.747 136.875C689.452 137.053 689.09 137.07 688.782 136.924L688.692 136.875L684.709 134.471L680.723 136.875C680.428 137.053 680.066 137.069 679.759 136.924L679.668 136.876L675.678 134.47L671.689 136.876C671.234 137.15 670.652 137.028 670.342 136.61L670.287 136.528C670.013 136.074 670.135 135.491 670.553 135.181L670.635 135.127L675.152 132.404Z" fill="#000000" fill-rule="evenodd" opacity="1" stroke="none"/>
<path d="M468.67 115.702C468.67 125.477 460.746 133.401 450.972 133.401C441.198 133.401 433.273 125.477 433.273 115.702C433.273 105.928 441.198 98.0039 450.972 98.0039C460.746 98.0039 468.67 105.928 468.67 115.702" fill="#000000" fill-rule="evenodd" opacity="1" stroke="none"/>
<path d="M418.348 89.0479C418.348 93.9831 414.347 97.9843 409.411 97.9843C404.476 97.9843 400.475 93.9831 400.475 89.0479C400.475 84.1128 404.476 80.1116 409.411 80.1116C414.347 80.1116 418.348 84.1128 418.348 89.0479" fill="#000000" fill-rule="evenodd" opacity="1" stroke="none"/>
<path d="M502.723 80.0199C502.723 84.955 498.722 88.9563 493.787 88.9563C488.851 88.9563 484.85 84.955 484.85 80.0199C484.85 75.0847 488.851 71.0835 493.787 71.0835C498.722 71.0835 502.723 75.0847 502.723 80.0199" fill="#000000" fill-rule="evenodd" opacity="1" stroke="none"/>
<path d="M433.254 167.888C433.254 172.823 429.253 176.825 424.318 176.825C419.382 176.825 415.381 172.823 415.381 167.888C415.381 162.953 419.382 158.952 424.318 158.952C429.253 158.952 433.254 162.953 433.254 167.888" fill="#000000" fill-rule="evenodd" opacity="1" stroke="none"/>
<path d="M498.999 142.562C498.999 147.497 494.998 151.499 490.062 151.499C485.127 151.499 481.126 147.497 481.126 142.562C481.126 137.627 485.127 133.626 490.062 133.626C494.998 133.626 498.999 137.627 498.999 142.562" fill="#000000" fill-rule="evenodd" opacity="1" stroke="none"/>
<path d="M408.266 88.3132C408.651 87.7119 409.43 87.5158 410.05 87.8457L410.146 87.9022L451.707 114.556C452.265 114.914 452.48 115.618 452.23 116.222L452.184 116.321L425.53 168.507C425.188 169.177 424.368 169.443 423.699 169.101C423.061 168.775 422.79 168.016 423.061 167.366L423.105 167.269L449.197 116.182L408.677 90.1941C408.075 89.8085 407.879 89.0292 408.209 88.4096L408.266 88.3132Z" fill="#000000" fill-rule="evenodd" opacity="1" stroke="none"/>
<path d="M492.915 78.974C493.493 78.4927 494.351 78.5707 494.833 79.1483C495.29 79.697 495.243 80.4992 494.741 80.9907L494.659 81.0657L453.224 115.597L490.833 141.44C491.422 141.845 491.593 142.63 491.244 143.239L491.184 143.333C490.78 143.922 489.994 144.093 489.386 143.744L489.291 143.684L450.201 116.824C449.489 116.335 449.413 115.323 450.018 114.731L450.101 114.656L492.915 78.974Z" fill="#000000" fill-rule="evenodd" opacity="1" stroke="none"/>
<path d="M738.865 225.688C718.64 225.688 700.303 236.499 690.386 253.684C690.203 254 690.204 254.39 690.386 254.705C700.319 271.886 718.647 282.69 738.865 282.69C759.085 282.69 777.424 271.884 787.354 254.705C787.537 254.389 787.537 254 787.355 253.684C777.423 236.493 759.095 225.688 738.865 225.688ZM739.449 227.733C758.322 227.935 775.408 237.891 785.003 253.719L785.287 254.194L785.003 254.669C775.31 270.649 757.959 280.648 738.865 280.648L738.281 280.644C719.42 280.443 702.334 270.488 692.738 254.669L692.453 254.194L692.738 253.719C702.418 237.733 719.767 227.73 738.865 227.73L739.449 227.733Z" fill="#000000" fill-rule="evenodd" opacity="1" stroke="none"/>
<path d="M738.871 237.6C748.032 237.6 755.46 245.027 755.46 254.189C755.46 263.351 748.032 270.778 738.871 270.778C729.709 270.778 722.282 263.351 722.282 254.189C722.282 245.027 729.709 237.6 738.871 237.6ZM746.997 246.096C744.511 246.096 742.497 248.11 742.497 250.595C742.497 253.079 744.511 255.094 746.997 255.094C749.481 255.094 751.496 253.079 751.496 250.595C751.496 248.11 749.481 246.096 746.997 246.096Z" fill="#000000" fill-rule="evenodd" opacity="1" stroke="none"/>
<path d="M820.71 253.168C821.274 253.168 821.731 253.625 821.731 254.189C821.731 254.72 821.326 255.156 820.809 255.205L820.71 255.21L808.796 255.21C808.232 255.21 807.775 254.753 807.775 254.189C807.775 253.658 808.18 253.222 808.698 253.173L808.796 253.168L820.71 253.168Z" fill="#000000" fill-rule="evenodd" opacity="1" stroke="none"/>
<path d="M803.961 226.199C804.243 225.71 804.867 225.543 805.356 225.825C805.815 226.09 805.991 226.659 805.774 227.132L805.729 227.22L799.772 237.537C799.49 238.026 798.866 238.193 798.378 237.911C797.918 237.646 797.743 237.077 797.959 236.604L798.004 236.516L803.961 226.199Z" fill="#000000" fill-rule="evenodd" opacity="1" stroke="none"/>
<path d="M798.378 270.467C798.837 270.202 799.417 270.334 799.719 270.758L799.772 270.841L805.729 281.158C806.011 281.647 805.844 282.271 805.356 282.553C804.896 282.818 804.316 282.686 804.014 282.262L803.961 282.179L798.004 271.862C797.722 271.373 797.889 270.749 798.378 270.467Z" fill="#000000" fill-rule="evenodd" opacity="1" stroke="none"/>
<path d="M724.218 25.3232C732.927 25.3232 740.004 32.312 740.144 40.9871L740.146 41.2505L740.146 130.13C740.146 130.694 739.689 131.151 739.125 131.151C738.595 131.151 738.158 130.746 738.109 130.229L738.104 130.13L738.104 41.2505C738.104 33.6608 732.015 27.4936 724.455 27.3673L724.218 27.3653L548.792 27.3653C541.203 27.3653 535.035 33.4546 534.909 41.0138L534.907 41.2505L534.907 97.6379C534.907 98.2018 534.45 98.659 533.886 98.659C533.355 98.659 532.919 98.254 532.869 97.7362L532.865 97.6379L532.865 41.2505C532.865 32.5422 539.854 25.4659 548.529 25.3253L548.792 25.3232L724.218 25.3232Z" fill="#000000" fill-rule="evenodd" opacity="1" stroke="none"/>
<path d="M649.704 45.7446C650.268 45.7446 650.725 46.2017 650.725 46.7657C650.725 47.2964 650.32 47.7326 649.803 47.782L649.704 47.7867L623.307 47.7867C622.743 47.7867 622.286 47.3296 622.286 46.7657C622.286 46.2349 622.691 45.7987 623.209 45.7493L623.307 45.7446L649.704 45.7446Z" fill="#000000" fill-rule="evenodd" opacity="1" stroke="none"/>
<path d="M739.125 297.749C739.656 297.749 740.092 298.154 740.142 298.672L740.146 298.77L740.146 421.262C740.146 429.97 733.157 437.046 724.482 437.187L724.219 437.189L548.793 437.189C540.084 437.189 533.007 430.2 532.867 421.525L532.865 421.262L532.865 353.99C532.865 353.426 533.322 352.969 533.886 352.969C534.416 352.969 534.853 353.374 534.902 353.891L534.907 353.99L534.907 421.262C534.907 428.851 540.996 435.019 548.556 435.145L548.793 435.147L724.219 435.147C731.808 435.147 737.976 429.058 738.102 421.499L738.104 421.262L738.104 298.77C738.104 298.206 738.561 297.749 739.125 297.749Z" fill="#000000" fill-rule="evenodd" opacity="1" stroke="none"/>
<path d="M649.704 414.728C650.268 414.728 650.725 415.185 650.725 415.749C650.725 416.28 650.32 416.716 649.803 416.766L649.704 416.77L623.307 416.77C622.743 416.77 622.286 416.313 622.286 415.749C622.286 415.218 622.691 414.782 623.209 414.733L623.307 414.728L649.704 414.728Z" fill="#000000" fill-rule="evenodd" opacity="1" stroke="none"/>
<path d="M738.871 183.814C739.401 183.814 739.837 184.219 739.887 184.737L739.892 184.835L739.892 213.297C739.892 213.861 739.434 214.318 738.871 214.318C738.34 214.318 737.904 213.913 737.854 213.395L737.849 213.297L737.849 184.835C737.849 184.271 738.307 183.814 738.871 183.814Z" fill="#000000" fill-rule="evenodd" opacity="1" stroke="none"/>
<path d="M791.453 385.932C798.705 392.485 799.274 403.676 792.721 410.929C786.168 418.182 774.978 418.751 767.725 412.198C760.471 405.646 759.902 394.454 766.455 387.2C773.008 379.947 784.2 379.38 791.453 385.932" fill="#000000" fill-rule="evenodd" opacity="1" stroke="none"/>
<path d="M789.824 344.804C793.486 348.112 793.772 353.762 790.463 357.425C787.155 361.088 781.505 361.374 777.842 358.065C774.18 354.757 773.894 349.106 777.202 345.443C780.51 341.782 786.161 341.495 789.824 344.804" fill="#000000" fill-rule="evenodd" opacity="1" stroke="none"/>
<path d="M831.715 381.433C835.377 384.741 835.664 390.393 832.355 394.055C829.047 397.717 823.396 398.004 819.733 394.695C816.071 391.387 815.785 385.736 819.093 382.074C822.401 378.412 828.052 378.125 831.715 381.433" fill="#000000" fill-rule="evenodd" opacity="1" stroke="none"/>
<path d="M783.852 350.073L783.954 350.078C784.668 350.142 785.205 350.748 785.194 351.454L785.189 351.555L781.112 397.302L825.408 386.741C826.106 386.574 826.807 386.978 827.021 387.651L827.048 387.749C827.214 388.447 826.811 389.148 826.137 389.362L826.039 389.389L779.904 400.39C779.032 400.598 778.211 399.922 778.227 399.043L778.232 398.944L782.477 351.314C782.54 350.599 783.146 350.062 783.852 350.073Z" fill="#000000" fill-rule="evenodd" opacity="1" stroke="none"/>
<path d="M529.434 163.837C523.59 169.281 524.139 179.032 529.948 184.299C538.366 191.931 554.077 186.32 556.129 175.183C556.194 174.823 556.244 174.46 556.278 174.096C556.826 168.034 552.894 162.379 553.774 156.347C554.054 154.428 555.279 152.801 556.43 151.241C559.003 147.753 562.591 142.851 561.753 138.249C561.299 135.745 559.516 133.702 557.647 131.975C555.202 129.716 549.17 125.08 552.914 121.297C553.481 120.724 554.276 120.31 555.059 120.129C555.707 119.98 556.419 120.024 556.988 120.363C558.861 121.48 559.342 123.721 561.917 123.796C563.235 123.834 564.555 123.205 565.354 122.156C566.575 120.555 566.481 118.306 565.979 116.355C565.701 115.272 565.313 114.148 565.587 113.064C566.015 111.373 567.941 110.45 569.685 110.476C571.429 110.503 573.073 111.228 574.741 111.74C579.378 113.166 584.654 112.903 588.802 110.386C590.995 109.056 592.925 106.902 593.045 104.34C593.148 102.156 591.921 100.117 590.431 98.5181C586.587 94.393 580.922 92.3821 575.32 91.7341C569.808 91.097 564.118 91.6599 558.957 93.6986C553.797 95.738 549.19 99.2907 546.192 103.96C543.665 107.895 542.376 112.517 542.127 117.165C541.874 121.907 543.007 126.369 543.82 130.985C544.48 134.737 542.995 138.971 540.331 141.636C538.306 143.66 535.878 145.241 533.799 147.211C531.619 149.277 529.846 151.94 529.682 155.02C529.566 157.186 530.555 158.352 531.266 160.227C531.843 161.747 530.532 162.832 529.531 163.747C529.499 163.777 529.466 163.807 529.434 163.837" fill="#000000" fill-rule="evenodd" opacity="1" stroke="none"/>
<path d="M589.247 108.951C589.797 108.829 590.343 109.176 590.465 109.726C591.655 115.083 591.984 120.05 591.725 124.714C591.274 133.262 589.855 139.414 585.413 145.876C584.026 147.892 582.643 149.418 581.292 150.532C580.36 151.301 579.627 151.745 578.857 152.106C576.103 153.373 573.117 153.598 570.055 153.041C568.034 152.673 566.354 152.063 564.796 151.316C564.288 151.073 564.073 150.463 564.317 149.954C564.561 149.446 565.17 149.231 565.679 149.475C567.087 150.15 568.607 150.701 570.421 151.032C573.099 151.519 575.667 151.326 577.997 150.254C578.615 149.964 579.204 149.607 579.993 148.957C581.195 147.966 582.449 146.581 583.73 144.719C587.908 138.641 589.253 132.81 589.686 124.603C589.935 120.114 589.618 115.332 588.471 110.169C588.349 109.618 588.696 109.073 589.247 108.951Z" fill="#000000" fill-rule="evenodd" opacity="1" stroke="none"/>
<path d="M572.341 151.28C572.898 151.193 573.42 151.575 573.507 152.132C574.213 156.686 573.599 161.222 571.009 165.243C570.336 166.289 569.617 167.228 568.563 168.271C567.002 169.815 565.138 171.091 562.932 171.974C560.729 172.85 558.49 173.217 556.289 173.172C555.725 173.16 555.277 172.694 555.289 172.13C555.3 171.566 555.767 171.119 556.33 171.13C558.27 171.17 560.239 170.847 562.176 170.077C564.112 169.302 565.751 168.18 567.127 166.819C568.059 165.897 568.692 165.07 569.291 164.138C571.577 160.59 572.124 156.546 571.489 152.445C571.402 151.888 571.784 151.366 572.341 151.28Z" fill="#000000" fill-rule="evenodd" opacity="1" stroke="none"/>
<path d="M530.085 157.502C530.605 157.285 531.203 157.532 531.419 158.053C531.636 158.574 531.389 159.171 530.869 159.388C528.019 160.572 525.173 161.858 522.348 163.244C519.993 164.401 517.696 165.613 515.46 166.87C513.053 168.223 511.635 170.374 511.22 172.981C510.801 175.635 510.539 178.337 510.416 181.156L510.375 182.213C510.198 187.197 510.381 191.109 511.152 200.224L511.796 207.624C512.838 219.908 514.751 231.816 517.415 243.329C517.543 243.878 517.2 244.427 516.651 244.554C516.101 244.681 515.553 244.339 515.426 243.789C512.835 232.598 510.951 221.037 509.877 209.122L509.115 200.366C508.284 190.544 508.131 186.698 508.376 181.068C508.502 178.173 508.772 175.395 509.203 172.661C509.714 169.455 511.491 166.759 514.459 165.09C516.727 163.814 519.058 162.585 521.448 161.411C524.311 160.005 527.196 158.703 530.085 157.502Z" fill="#000000" fill-rule="evenodd" opacity="1" stroke="none"/>
<path d="M571.622 152.581C571.806 152.048 572.387 151.765 572.92 151.949L574.047 152.334C574.501 152.486 574.972 152.642 575.509 152.817L579.806 154.213C581.199 154.674 582.208 155.024 583.592 155.525L584.882 155.995C590.183 157.94 591.828 158.758 594.315 160.66C598.807 164.103 600.923 168.034 603.131 174.815C605.883 183.233 608.632 192.279 611.298 201.539L612.311 205.084C613.554 209.46 614.635 213.376 615.572 216.846L616.323 219.649L617.322 220.939C619.202 223.352 621.125 225.746 623.095 228.123L624.282 229.548C627.318 233.175 630.439 236.731 633.672 240.261C634.053 240.676 634.025 241.322 633.609 241.703C633.193 242.084 632.548 242.056 632.167 241.64C628.913 238.088 625.772 234.51 622.717 230.859C619.915 227.519 617.207 224.146 614.581 220.734C614.498 220.627 614.438 220.505 614.403 220.374L613.877 218.403C612.744 214.187 611.388 209.276 609.778 203.646C607.128 194.385 604.391 185.315 601.647 176.853L601.189 175.448C599.099 169.03 597.148 165.405 593.074 162.282L592.685 161.988C590.599 160.441 588.985 159.675 584.148 157.901L582.077 157.151C580.704 156.661 579.587 156.286 577.71 155.676L574.606 154.67C573.737 154.386 573.029 154.148 572.253 153.88C571.72 153.695 571.437 153.114 571.622 152.581Z" fill="#000000" fill-rule="evenodd" opacity="1" stroke="none"/>
<path d="M506.283 241.996C509.296 241.327 512.584 241.528 516.265 242.463C518.917 243.138 521.521 244.097 525.021 245.612L526.921 246.448L529.831 247.749C530.468 248.031 531.002 248.264 531.509 248.479L531.698 248.559C546.638 254.864 561.12 260.318 575.396 264.963C575.932 265.138 576.226 265.714 576.051 266.25C575.877 266.787 575.301 267.08 574.764 266.905C560.943 262.408 546.933 257.157 532.508 251.115L530.516 250.276C530.188 250.136 529.847 249.988 529.473 249.823L525.443 248.026L524.224 247.492C520.81 246.014 518.29 245.086 515.761 244.443C512.367 243.58 509.391 243.398 506.725 243.99C502.784 244.865 499.746 247.627 498.836 251.312C497.231 257.81 500.703 264.4 507.962 271.856C511.45 275.439 515.755 279 521.513 283.227L522.718 284.106C523.404 284.603 524.116 285.115 524.886 285.664L530.03 289.303C530.49 289.629 530.6 290.266 530.275 290.726C529.968 291.16 529.386 291.282 528.934 291.024L528.86 290.977C528.69 290.858 525.762 288.791 524.905 288.183L523.698 287.325C522.796 286.682 521.972 286.088 521.176 285.509L520.837 285.262C514.729 280.804 510.188 277.07 506.499 273.281C498.787 265.36 495.026 258.22 496.853 250.822C497.956 246.355 501.611 243.033 506.283 241.996Z" fill="#000000" fill-rule="evenodd" opacity="1" stroke="none"/>
<path d="M510.945 306.686C506.514 303.365 505.487 296.222 509.524 292.161C511.741 289.931 515.502 289.374 518.508 289.229C522.231 289.049 526.13 290.219 529.852 289.995C533.653 289.767 537.125 288.05 540.917 287.776C542.868 287.635 544.907 287.769 546.639 288.679C548.044 289.419 549.153 290.622 550.083 291.911C550.628 292.666 551.906 294.566 551.051 295.468C550.712 295.826 550.138 296.501 549.652 296.421C547.281 296.028 544.949 295.589 542.484 295.091C540.143 294.618 537.778 294.256 535.381 294.098C532.238 293.891 528.142 294.012 526.352 297.055C524.394 300.384 526.453 304.148 529.483 305.935" fill="#000000" fill-rule="evenodd" opacity="1" stroke="none"/>
<path d="M533.839 203.198C534.403 203.172 534.88 203.608 534.906 204.171L536.024 228.775L577.298 249.977C577.68 250.173 577.895 250.585 577.846 251.004L577.83 251.101L576.078 259.193C575.971 259.69 575.516 260.027 575.018 259.996L574.924 259.986L541.677 254.842C541.12 254.756 540.738 254.234 540.824 253.677C540.905 253.152 541.372 252.783 541.891 252.813L541.989 252.824L574.286 257.82L575.667 251.435L534.565 230.321C534.239 230.154 534.028 229.825 534.011 229.459L532.866 204.264C532.84 203.701 533.276 203.223 533.839 203.198Z" fill="#000000" fill-rule="evenodd" opacity="1" stroke="none"/>
<path d="M575.827 250.703C575.922 250.181 576.398 249.824 576.916 249.868L577.014 249.881L588.886 252.034C588.998 252.054 589.104 252.092 589.202 252.147L589.298 252.207L599.889 259.773C600.348 260.101 600.455 260.738 600.127 261.197C599.818 261.629 599.235 261.749 598.785 261.488L598.703 261.435L588.296 254.002L576.65 251.89C576.127 251.795 575.77 251.319 575.814 250.801L575.827 250.703Z" fill="#000000" fill-rule="evenodd" opacity="1" stroke="none"/>
<path d="M574.082 258.761C574.194 258.242 574.682 257.901 575.199 257.962L575.296 257.979L587.377 260.591C587.569 260.633 587.745 260.729 587.883 260.868L587.949 260.941L594.006 268.304C594.365 268.739 594.302 269.383 593.866 269.741C593.458 270.077 592.867 270.043 592.5 269.678L592.429 269.601L586.597 262.512L574.864 259.975C574.346 259.862 574.005 259.374 574.066 258.858L574.082 258.761Z" fill="#000000" fill-rule="evenodd" opacity="1" stroke="none"/>
<path d="M669.833 230.61C670.688 230.385 671.39 231.272 671.013 232.041L670.97 232.12L656.476 256.439C656.187 256.923 655.561 257.082 655.076 256.793C654.62 256.521 654.453 255.95 654.675 255.48L654.722 255.393L667.937 233.221L613.695 247.511L592.502 280.566C592.282 280.908 591.884 281.085 591.489 281.025L591.39 281.005L558.169 272.555C557.21 272.311 557.136 271.002 558.011 270.629L558.105 270.594L586.988 261.223C587.524 261.049 588.1 261.343 588.274 261.879C588.438 262.384 588.188 262.924 587.71 263.13L587.618 263.165L562.095 271.446L591.18 278.844L612.19 246.074C612.308 245.89 612.483 245.749 612.686 245.672L612.79 245.638L669.833 230.61Z" fill="#000000" fill-rule="evenodd" opacity="1" stroke="none"/>
<path d="M646.52 266.023C647.068 265.889 647.621 266.225 647.754 266.773C647.88 267.289 647.59 267.808 647.098 267.979L647.004 268.007L592.798 281.213L551.628 295.279C551.126 295.45 550.582 295.208 550.368 294.734L550.332 294.643C550.16 294.14 550.402 293.597 550.876 293.382L550.968 293.346L592.175 279.268L592.263 279.242L646.52 266.023Z" fill="#000000" fill-rule="evenodd" opacity="1" stroke="none"/>
<path d="M591.234 200.182C591.234 198.981 592.921 198.784 593.234 199.887L593.258 199.988L599.145 230.312L618.021 244.666C618.443 244.987 618.546 245.574 618.272 246.016L618.216 246.097C617.894 246.519 617.308 246.621 616.866 246.347L616.785 246.292L597.598 231.701C597.427 231.571 597.302 231.391 597.24 231.187L597.214 231.083L593.276 210.801L593.276 230.732L600.271 253.14C600.429 253.646 600.172 254.183 599.693 254.385L599.6 254.419C599.094 254.577 598.557 254.32 598.355 253.841L598.321 253.748L591.281 231.193C591.26 231.127 591.246 231.06 591.24 230.991L591.234 230.889L591.234 200.182Z" fill="#000000" fill-rule="evenodd" opacity="1" stroke="none"/>
<path d="M631.844 269.619L631.943 269.62L632.745 269.672C641.601 270.295 646.995 272.404 651.389 277.956C653.262 280.32 654.569 282.685 655.175 285.945C655.997 290.371 654.92 294.699 652.522 298.767C651.663 300.224 650.683 301.561 649.645 302.763C648.962 303.554 648.367 304.161 647.888 304.604C647.474 304.987 646.828 304.962 646.446 304.548C646.063 304.134 646.088 303.488 646.502 303.105L646.745 302.874C647.127 302.504 647.584 302.026 648.099 301.429C649.061 300.315 649.97 299.075 650.763 297.73C652.93 294.053 653.888 290.202 653.167 286.318C652.635 283.452 651.473 281.35 649.788 279.223C645.695 274.052 640.633 272.18 631.822 271.659C631.259 271.626 630.83 271.142 630.863 270.58C630.895 270.05 631.325 269.638 631.844 269.619Z" fill="#000000" fill-rule="evenodd" opacity="1" stroke="none"/>
<path d="M652.106 253.948C647.559 253.948 643.874 257.634 643.874 262.181C643.874 266.727 647.559 270.413 652.106 270.413C656.653 270.413 660.338 266.728 660.338 262.181C660.338 257.634 656.653 253.948 652.106 253.948ZM652.106 255.99C655.525 255.99 658.296 258.762 658.296 262.181C658.296 265.6 655.525 268.37 652.106 268.37C648.687 268.37 645.916 265.6 645.916 262.181C645.916 258.762 648.687 255.99 652.106 255.99Z" fill="#000000" fill-rule="evenodd" opacity="1" stroke="none"/>
<path d="M558.421 270.544C558.951 270.544 559.388 270.949 559.437 271.467L559.442 271.565L559.441 275.778L585.269 281.791C585.786 281.911 586.119 282.404 586.049 282.92L586.032 283.017C585.911 283.534 585.418 283.867 584.903 283.798L584.806 283.78L558.189 277.583C557.758 277.483 557.444 277.117 557.404 276.683L557.4 276.589L557.4 271.565C557.4 271.001 557.857 270.544 558.421 270.544Z" fill="#000000" fill-rule="evenodd" opacity="1" stroke="none"/>
<path d="M647.319 267.794C647.575 267.292 648.19 267.093 648.693 267.349C649.165 267.591 649.369 268.15 649.178 268.633L649.137 268.723L647.522 271.886C647.407 272.112 647.212 272.285 646.977 272.375L646.874 272.408L642.649 273.529C642.104 273.673 641.544 273.348 641.4 272.803C641.264 272.29 641.544 271.765 642.031 271.584L642.125 271.555L645.91 270.551L647.319 267.794Z" fill="#000000" fill-rule="evenodd" opacity="1" stroke="none"/>
<path d="M572.824 152.477C571.748 152.511 570.245 152.459 568.521 152.079C566.625 151.66 565.175 151.001 564.218 150.482C564.399 152.021 564.859 154.195 566.086 156.601C567.576 159.525 569.57 161.556 570.961 162.765C571.597 161.7 572.328 160.194 572.748 158.311C573.288 155.881 573.085 153.823 572.824 152.477" fill="#000000" fill-rule="evenodd" opacity="1" stroke="none"/>
</g>
</g>
</g>
</svg>
