<svg xmlns="http://www.w3.org/2000/svg" xmlns:xlink="http://www.w3.org/1999/xlink" width="500" zoomAndPan="magnify" viewBox="0 0 375 374.999991" height="500" preserveAspectRatio="xMidYMid meet" version="1.0"><defs><filter x="0%" y="0%" width="100%" height="100%" id="id1"><feColorMatrix values="0 0 0 0 1 0 0 0 0 1 0 0 0 0 1 0 0 0 1 0" color-interpolation-filters="sRGB"/></filter><g/><clipPath id="id2"><path d="M 85.519531 200.175781 L 289.519531 200.175781 L 289.519531 290.761719 L 85.519531 290.761719 Z M 85.519531 200.175781 " clip-rule="nonzero"/></clipPath><clipPath id="id3"><path d="M 85.519531 84.277344 L 289.519531 84.277344 L 289.519531 175.027344 L 85.519531 175.027344 Z M 85.519531 84.277344 " clip-rule="nonzero"/></clipPath><clipPath id="id4"><path d="M 120.953125 200.5 L 253.703125 200.5 L 253.703125 253.703125 L 120.953125 253.703125 Z M 120.953125 200.5 " clip-rule="nonzero"/></clipPath><clipPath id="id5"><path d="M 120.953125 120.953125 L 253.703125 120.953125 L 253.703125 174.953125 L 120.953125 174.953125 Z M 120.953125 120.953125 " clip-rule="nonzero"/></clipPath><clipPath id="id6"><path d="M 221 147.851562 L 235.726562 147.851562 L 235.726562 190 L 221 190 Z M 221 147.851562 " clip-rule="nonzero"/></clipPath><clipPath id="id7"><path d="M 221 160 L 235.726562 160 L 235.726562 190 L 221 190 Z M 221 160 " clip-rule="nonzero"/></clipPath><clipPath id="id8"><path d="M 222 147.851562 L 235 147.851562 L 235 160 L 222 160 Z M 222 147.851562 " clip-rule="nonzero"/></clipPath><clipPath id="id9"><path d="M 167 147.851562 L 182 147.851562 L 182 190 L 167 190 Z M 167 147.851562 " clip-rule="nonzero"/></clipPath><clipPath id="id10"><path d="M 168 147.851562 L 180 147.851562 L 180 160 L 168 160 Z M 168 147.851562 " clip-rule="nonzero"/></clipPath><clipPath id="id11"><path d="M 138.976562 147.851562 L 153 147.851562 L 153 190 L 138.976562 190 Z M 138.976562 147.851562 " clip-rule="nonzero"/></clipPath><clipPath id="id12"><path d="M 138.976562 160 L 153 160 L 153 190 L 138.976562 190 Z M 138.976562 160 " clip-rule="nonzero"/></clipPath><clipPath id="id13"><path d="M 140 147.851562 L 152 147.851562 L 152 160 L 140 160 Z M 140 147.851562 " clip-rule="nonzero"/></clipPath><clipPath id="id14"><path d="M 194 147.851562 L 209 147.851562 L 209 190 L 194 190 Z M 194 147.851562 " clip-rule="nonzero"/></clipPath><clipPath id="id15"><path d="M 195 147.851562 L 208 147.851562 L 208 160 L 195 160 Z M 195 147.851562 " clip-rule="nonzero"/></clipPath><clipPath id="id16"><path d="M 221 147.851562 L 235.726562 147.851562 L 235.726562 190 L 221 190 Z M 221 147.851562 " clip-rule="nonzero"/></clipPath><mask id="id17"><g filter="url(#id1)"><rect x="-37.5" width="450" fill="#000000" y="-37.499999" height="449.999989" fill-opacity="0.498"/></g></mask><clipPath id="id18"><path d="M 0.519531 0.851562 L 14.726562 0.851562 L 14.726562 42.359375 L 0.519531 42.359375 Z M 0.519531 0.851562 " clip-rule="nonzero"/></clipPath><clipPath id="id19"><path d="M 0.519531 13 L 14.726562 13 L 14.726562 42.359375 L 0.519531 42.359375 Z M 0.519531 13 " clip-rule="nonzero"/></clipPath><clipPath id="id20"><path d="M 1 0.851562 L 14 0.851562 L 14 13 L 1 13 Z M 1 0.851562 " clip-rule="nonzero"/></clipPath><clipPath id="id21"><rect x="0" width="15" y="0" height="43"/></clipPath><clipPath id="id22"><path d="M 167 147.851562 L 182 147.851562 L 182 190 L 167 190 Z M 167 147.851562 " clip-rule="nonzero"/></clipPath><mask id="id23"><g filter="url(#id1)"><rect x="-37.5" width="450" fill="#000000" y="-37.499999" height="449.999989" fill-opacity="0.498"/></g></mask><clipPath id="id24"><path d="M 0.0390625 0.851562 L 14.679688 0.851562 L 14.679688 42.359375 L 0.0390625 42.359375 Z M 0.0390625 0.851562 " clip-rule="nonzero"/></clipPath><clipPath id="id25"><path d="M 0.0390625 13 L 14.679688 13 L 14.679688 42.359375 L 0.0390625 42.359375 Z M 0.0390625 13 " clip-rule="nonzero"/></clipPath><clipPath id="id26"><path d="M 1 0.851562 L 13 0.851562 L 13 13 L 1 13 Z M 1 0.851562 " clip-rule="nonzero"/></clipPath><clipPath id="id27"><rect x="0" width="15" y="0" height="43"/></clipPath><clipPath id="id28"><path d="M 138.976562 147.851562 L 154 147.851562 L 154 190 L 138.976562 190 Z M 138.976562 147.851562 " clip-rule="nonzero"/></clipPath><mask id="id29"><g filter="url(#id1)"><rect x="-37.5" width="450" fill="#000000" y="-37.499999" height="449.999989" fill-opacity="0.498"/></g></mask><clipPath id="id30"><path d="M 0.976562 0.851562 L 15 0.851562 L 15 42.359375 L 0.976562 42.359375 Z M 0.976562 0.851562 " clip-rule="nonzero"/></clipPath><clipPath id="id31"><path d="M 0.976562 13 L 15 13 L 15 42.359375 L 0.976562 42.359375 Z M 0.976562 13 " clip-rule="nonzero"/></clipPath><clipPath id="id32"><path d="M 2 0.851562 L 14 0.851562 L 14 13 L 2 13 Z M 2 0.851562 " clip-rule="nonzero"/></clipPath><clipPath id="id33"><rect x="0" width="16" y="0" height="43"/></clipPath><clipPath id="id34"><path d="M 194 147.851562 L 209 147.851562 L 209 190 L 194 190 Z M 194 147.851562 " clip-rule="nonzero"/></clipPath><mask id="id35"><g filter="url(#id1)"><rect x="-37.5" width="450" fill="#000000" y="-37.499999" height="449.999989" fill-opacity="0.498"/></g></mask><clipPath id="id36"><path d="M 0.398438 0.851562 L 14.800781 0.851562 L 14.800781 42.359375 L 0.398438 42.359375 Z M 0.398438 0.851562 " clip-rule="nonzero"/></clipPath><clipPath id="id37"><path d="M 0.398438 13 L 14.800781 13 L 14.800781 42.359375 L 0.398438 42.359375 Z M 0.398438 13 " clip-rule="nonzero"/></clipPath><clipPath id="id38"><path d="M 1 0.851562 L 14 0.851562 L 14 13 L 1 13 Z M 1 0.851562 " clip-rule="nonzero"/></clipPath><clipPath id="id39"><rect x="0" width="15" y="0" height="43"/></clipPath><mask id="id40"><g filter="url(#id1)"><rect x="-37.5" width="450" fill="#000000" y="-37.499999" height="449.999989" fill-opacity="0.298"/></g></mask><clipPath id="id41"><path d="M 0.199219 0.441406 L 16.28125 0.441406 L 16.28125 47.238281 L 0.199219 47.238281 Z M 0.199219 0.441406 " clip-rule="nonzero"/></clipPath><clipPath id="id42"><path d="M 0.199219 14 L 16.28125 14 L 16.28125 47.238281 L 0.199219 47.238281 Z M 0.199219 14 " clip-rule="nonzero"/></clipPath><clipPath id="id43"><path d="M 1 0.441406 L 15 0.441406 L 15 14 L 1 14 Z M 1 0.441406 " clip-rule="nonzero"/></clipPath><clipPath id="id44"><rect x="0" width="17" y="0" height="48"/></clipPath><mask id="id45"><g filter="url(#id1)"><rect x="-37.5" width="450" fill="#000000" y="-37.499999" height="449.999989" fill-opacity="0.298"/></g></mask><clipPath id="id46"><path d="M 0 0.441406 L 16.320312 0.441406 L 16.320312 47.238281 L 0 47.238281 Z M 0 0.441406 " clip-rule="nonzero"/></clipPath><clipPath id="id47"><path d="M 0 14 L 16.320312 14 L 16.320312 47.238281 L 0 47.238281 Z M 0 14 " clip-rule="nonzero"/></clipPath><clipPath id="id48"><path d="M 1 0.441406 L 15 0.441406 L 15 14 L 1 14 Z M 1 0.441406 " clip-rule="nonzero"/></clipPath><clipPath id="id49"><rect x="0" width="17" y="0" height="48"/></clipPath><mask id="id50"><g filter="url(#id1)"><rect x="-37.5" width="450" fill="#000000" y="-37.499999" height="449.999989" fill-opacity="0.298"/></g></mask><clipPath id="id51"><path d="M 0.238281 0.441406 L 16 0.441406 L 16 47.238281 L 0.238281 47.238281 Z M 0.238281 0.441406 " clip-rule="nonzero"/></clipPath><clipPath id="id52"><path d="M 0.238281 14 L 16 14 L 16 47.238281 L 0.238281 47.238281 Z M 0.238281 14 " clip-rule="nonzero"/></clipPath><clipPath id="id53"><path d="M 1 0.441406 L 15 0.441406 L 15 14 L 1 14 Z M 1 0.441406 " clip-rule="nonzero"/></clipPath><clipPath id="id54"><rect x="0" width="17" y="0" height="48"/></clipPath><mask id="id55"><g filter="url(#id1)"><rect x="-37.5" width="450" fill="#000000" y="-37.499999" height="449.999989" fill-opacity="0.098"/></g></mask><clipPath id="id56"><path d="M 0.320312 0.28125 L 18 0.28125 L 18 52 L 0.320312 52 Z M 0.320312 0.28125 " clip-rule="nonzero"/></clipPath><clipPath id="id57"><path d="M 0.320312 16 L 18 16 L 18 52 L 0.320312 52 Z M 0.320312 16 " clip-rule="nonzero"/></clipPath><clipPath id="id58"><path d="M 1 0.28125 L 17 0.28125 L 17 15 L 1 15 Z M 1 0.28125 " clip-rule="nonzero"/></clipPath><clipPath id="id59"><rect x="0" width="19" y="0" height="53"/></clipPath><mask id="id60"><g filter="url(#id1)"><rect x="-37.5" width="450" fill="#000000" y="-37.499999" height="449.999989" fill-opacity="0.098"/></g></mask><clipPath id="id61"><path d="M 0.480469 0.28125 L 18.238281 0.28125 L 18.238281 52 L 0.480469 52 Z M 0.480469 0.28125 " clip-rule="nonzero"/></clipPath><clipPath id="id62"><path d="M 0.480469 16 L 18.238281 16 L 18.238281 52 L 0.480469 52 Z M 0.480469 16 " clip-rule="nonzero"/></clipPath><clipPath id="id63"><path d="M 1 0.28125 L 17 0.28125 L 17 15 L 1 15 Z M 1 0.28125 " clip-rule="nonzero"/></clipPath><clipPath id="id64"><rect x="0" width="19" y="0" height="53"/></clipPath><clipPath id="id65"><path d="M 177 173 L 198 173 L 198 231.101562 L 177 231.101562 Z M 177 173 " clip-rule="nonzero"/></clipPath><clipPath id="id66"><path d="M 177 191 L 198 191 L 198 231.101562 L 177 231.101562 Z M 177 191 " clip-rule="nonzero"/></clipPath><clipPath id="id67"><path d="M 177 173 L 198 173 L 198 231.101562 L 177 231.101562 Z M 177 173 " clip-rule="nonzero"/></clipPath><mask id="id68"><g filter="url(#id1)"><rect x="-37.5" width="450" fill="#000000" y="-37.499999" height="449.999989" fill-opacity="0.4"/></g></mask><clipPath id="id69"><path d="M 0.601562 0.519531 L 20.519531 0.519531 L 20.519531 58.101562 L 0.601562 58.101562 Z M 0.601562 0.519531 " clip-rule="nonzero"/></clipPath><clipPath id="id70"><path d="M 0.601562 18 L 20.519531 18 L 20.519531 58.101562 L 0.601562 58.101562 Z M 0.601562 18 " clip-rule="nonzero"/></clipPath><clipPath id="id71"><path d="M 2 0.519531 L 19 0.519531 L 19 17 L 2 17 Z M 2 0.519531 " clip-rule="nonzero"/></clipPath><clipPath id="id72"><rect x="0" width="21" y="0" height="59"/></clipPath></defs><g clip-path="url(#id2)"><path fill="#ffffff" d="M 187.484375 290.761719 C 131.289062 290.761719 85.519531 244.992188 85.519531 188.726562 C 85.519531 132.464844 131.289062 86.761719 187.484375 86.761719 C 243.679688 86.761719 289.449219 132.53125 289.449219 188.726562 C 289.519531 244.992188 243.75 290.761719 187.484375 290.761719 Z M 187.484375 88.488281 C 132.1875 88.488281 87.246094 133.429688 87.246094 188.726562 C 87.246094 244.023438 132.257812 289.035156 187.484375 289.035156 C 242.714844 289.035156 287.792969 244.023438 287.792969 188.726562 C 287.792969 133.429688 242.78125 88.488281 187.484375 88.488281 Z M 187.484375 88.488281 " fill-opacity="1" fill-rule="nonzero"/></g><path stroke-linecap="round" transform="matrix(1.505658, 0, 0, 1.5, 75.431551, 187.499988)" fill="none" stroke-linejoin="miter" d="M 0.499478 0.00000820833 L 38.852205 0.00000820833 " stroke="#ffffff" stroke-width="1" stroke-opacity="1" stroke-miterlimit="4"/><path stroke-linecap="round" transform="matrix(1.505658, 0, 0, 1.5, 240.539022, 187.499988)" fill="none" stroke-linejoin="miter" d="M 0.500743 0.00000820833 L 38.85347 0.00000820833 " stroke="#ffffff" stroke-width="1" stroke-opacity="1" stroke-miterlimit="4"/><g clip-path="url(#id3)"><path fill="#ffffff" d="M 187.484375 288.277344 C 131.289062 288.277344 85.519531 242.503906 85.519531 186.242188 C 85.519531 129.976562 131.289062 84.277344 187.484375 84.277344 C 243.679688 84.277344 289.449219 130.046875 289.449219 186.242188 C 289.519531 242.503906 243.75 288.277344 187.484375 288.277344 Z M 187.484375 86 C 132.1875 86 87.246094 130.945312 87.246094 186.242188 C 87.246094 241.539062 132.257812 286.550781 187.484375 286.550781 C 242.714844 286.550781 287.792969 241.539062 287.792969 186.242188 C 287.792969 130.945312 242.78125 86 187.484375 86 Z M 187.484375 86 " fill-opacity="1" fill-rule="nonzero"/></g><g fill="#ffffff" fill-opacity="1"><g transform="translate(103.738082, 223.658261)"><g><path d="M 0.765625 1.484375 L 12.53125 -4.5625 L 13.8125 -2.078125 L 4.109375 2.90625 L 6.546875 7.671875 L 4.484375 8.734375 Z M 0.765625 1.484375 "/></g></g></g><g fill="#ffffff" fill-opacity="1"><g transform="translate(109.592668, 234.7389)"><g><path d="M 5.328125 7.59375 L 0.953125 1.375 L 11.78125 -6.21875 L 16.15625 0 L 14.28125 1.3125 L 11.515625 -2.625 L 9.140625 -0.953125 L 11.71875 2.71875 L 9.828125 4.03125 L 7.25 0.359375 L 4.453125 2.328125 L 7.21875 6.265625 Z M 5.328125 7.59375 "/></g></g></g><g fill="#ffffff" fill-opacity="1"><g transform="translate(116.84889, 244.859611)"><g><path d="M 4.609375 4.953125 L 2.703125 2.90625 L 10.671875 -4.515625 L 8.21875 -7.140625 L 9.9375 -8.734375 L 16.75 -1.4375 L 15.03125 0.15625 L 12.578125 -2.46875 Z M 4.609375 4.953125 "/></g></g></g><g fill="#ffffff" fill-opacity="1"><g transform="translate(125.622761, 253.930989)"><g><path d="M 1.265625 1.09375 L 9.875 -8.96875 L 12 -7.15625 L 3.390625 2.90625 Z M 1.265625 1.09375 "/></g></g></g><g fill="#ffffff" fill-opacity="1"><g transform="translate(131.715204, 259.173626)"><g><path d="M 5.609375 3.796875 L 3.28125 2.21875 L 9.375 -6.796875 L 6.40625 -8.8125 L 7.71875 -10.765625 L 15.984375 -5.171875 L 14.671875 -3.21875 L 11.703125 -5.21875 Z M 5.609375 3.796875 "/></g></g></g><g fill="#ffffff" fill-opacity="1"><g transform="translate(142.301648, 266.043953)"><g><path d="M 1.484375 0.78125 L 7.609375 -10.953125 L 10.09375 -9.671875 L 3.96875 2.0625 Z M 1.484375 0.78125 "/></g></g></g><g fill="#ffffff" fill-opacity="1"><g transform="translate(149.468527, 269.882008)"><g><path d="M 9.15625 3.40625 L 9.34375 0.109375 L 4.828125 -1.5625 L 2.828125 1.046875 L 0 0 L 9 -10.828125 L 12.21875 -9.640625 L 11.984375 4.453125 Z M 9.546875 -2.3125 C 9.703125 -5.300781 9.789062 -6.988281 9.8125 -7.375 C 9.84375 -7.769531 9.867188 -8.082031 9.890625 -8.3125 C 9.453125 -7.65625 8.257812 -6.054688 6.3125 -3.515625 Z M 9.546875 -2.3125 "/></g></g></g><g fill="#ffffff" fill-opacity="1"><g transform="translate(169.899156, 276.388002)"><g><path d="M 9.6875 1.171875 L 9.109375 -2.078125 L 4.328125 -2.65625 L 3 0.359375 L 0 0 L 6.234375 -12.625 L 9.625 -12.21875 L 12.6875 1.546875 Z M 8.734375 -4.46875 C 8.191406 -7.414062 7.890625 -9.082031 7.828125 -9.46875 C 7.765625 -9.851562 7.722656 -10.160156 7.703125 -10.390625 C 7.410156 -9.640625 6.613281 -7.804688 5.3125 -4.890625 Z M 8.734375 -4.46875 "/></g></g></g><g fill="#ffffff" fill-opacity="1"><g transform="translate(184.958244, 278.104326)"><g><path d="M 13.390625 -0.765625 L 9.8125 -0.5625 L 3.5 -10.21875 L 3.421875 -10.21875 C 3.640625 -8.457031 3.769531 -7.195312 3.8125 -6.4375 L 4.171875 -0.234375 L 1.671875 -0.09375 L 0.90625 -13.3125 L 4.421875 -13.515625 L 10.75 -3.953125 L 10.8125 -3.96875 C 10.613281 -5.664062 10.492188 -6.867188 10.453125 -7.578125 L 10.09375 -13.84375 L 12.625 -13.984375 Z M 13.390625 -0.765625 "/></g></g></g><g fill="#ffffff" fill-opacity="1"><g transform="translate(202.374875, 276.816526)"><g><path d="M 10.671875 -9.546875 C 11.191406 -7.441406 10.984375 -5.679688 10.046875 -4.265625 C 9.117188 -2.847656 7.519531 -1.859375 5.25 -1.296875 L 1.625 -0.40625 L -1.546875 -13.25 L 2.46875 -14.234375 C 4.570312 -14.753906 6.34375 -14.601562 7.78125 -13.78125 C 9.21875 -12.957031 10.179688 -11.546875 10.671875 -9.546875 Z M 7.859375 -8.8125 C 7.179688 -11.570312 5.625 -12.648438 3.1875 -12.046875 L 1.734375 -11.6875 L 3.796875 -3.3125 L 4.953125 -3.609375 C 7.585938 -4.253906 8.554688 -5.988281 7.859375 -8.8125 Z M 7.859375 -8.8125 "/></g></g></g><g fill="#ffffff" fill-opacity="1"><g transform="translate(223.516089, 270.346508)"><g><path d="M 1.921875 3.390625 C 1.347656 3.660156 0.816406 3.835938 0.328125 3.921875 L -0.671875 1.828125 C -0.179688 1.722656 0.242188 1.582031 0.609375 1.40625 C 1.171875 1.144531 1.488281 0.785156 1.5625 0.328125 C 1.644531 -0.128906 1.507812 -0.726562 1.15625 -1.46875 L -4.15625 -12.671875 L -1.640625 -13.875 L 3.671875 -2.6875 C 4.328125 -1.289062 4.507812 -0.078125 4.21875 0.953125 C 3.9375 1.984375 3.171875 2.796875 1.921875 3.390625 Z M 1.921875 3.390625 "/></g></g></g><g fill="#ffffff" fill-opacity="1"><g transform="translate(230.897103, 266.938546)"><g><path d="M 8.234375 -5.25 L 5.71875 -7.390625 L 1.65625 -4.796875 L 2.546875 -1.625 L 0 0 L -3.203125 -13.703125 L -0.3125 -15.546875 L 10.78125 -6.875 Z M 3.90625 -9.015625 C 1.613281 -10.941406 0.316406 -12.03125 0.015625 -12.28125 C -0.273438 -12.539062 -0.5 -12.75 -0.65625 -12.90625 C -0.40625 -12.15625 0.144531 -10.238281 1 -7.15625 Z M 3.90625 -9.015625 "/></g></g></g><g fill="#ffffff" fill-opacity="1"><g transform="translate(243.343967, 258.688515)"><g><path d="M 4.71875 -9 C 5.507812 -8.09375 5.804688 -7.097656 5.609375 -6.015625 C 5.410156 -4.929688 4.734375 -3.882812 3.578125 -2.875 C 2.523438 -1.957031 1.410156 -1.335938 0.234375 -1.015625 L -1.46875 -2.984375 C -0.539062 -3.273438 0.207031 -3.5625 0.78125 -3.84375 C 1.351562 -4.125 1.832031 -4.4375 2.21875 -4.78125 C 2.675781 -5.175781 2.953125 -5.570312 3.046875 -5.96875 C 3.140625 -6.363281 3.035156 -6.734375 2.734375 -7.078125 C 2.566406 -7.273438 2.359375 -7.398438 2.109375 -7.453125 C 1.867188 -7.503906 1.582031 -7.515625 1.25 -7.484375 C 0.925781 -7.453125 0.300781 -7.300781 -0.625 -7.03125 C -1.476562 -6.789062 -2.171875 -6.664062 -2.703125 -6.65625 C -3.234375 -6.65625 -3.742188 -6.75 -4.234375 -6.9375 C -4.734375 -7.125 -5.1875 -7.457031 -5.59375 -7.9375 C -6.363281 -8.8125 -6.671875 -9.765625 -6.515625 -10.796875 C -6.359375 -11.828125 -5.753906 -12.800781 -4.703125 -13.71875 C -4.179688 -14.164062 -3.628906 -14.535156 -3.046875 -14.828125 C -2.460938 -15.117188 -1.816406 -15.375 -1.109375 -15.59375 L -0.375 -13.359375 C -1.09375 -13.117188 -1.660156 -12.882812 -2.078125 -12.65625 C -2.503906 -12.4375 -2.882812 -12.179688 -3.21875 -11.890625 C -3.625 -11.535156 -3.847656 -11.175781 -3.890625 -10.8125 C -3.941406 -10.445312 -3.835938 -10.113281 -3.578125 -9.8125 C -3.421875 -9.625 -3.238281 -9.5 -3.03125 -9.4375 C -2.832031 -9.375 -2.578125 -9.359375 -2.265625 -9.390625 C -1.960938 -9.429688 -1.316406 -9.585938 -0.328125 -9.859375 C 0.992188 -10.222656 2.023438 -10.332031 2.765625 -10.1875 C 3.503906 -10.050781 4.15625 -9.65625 4.71875 -9 Z M 4.71875 -9 "/></g></g></g><g fill="#ffffff" fill-opacity="1"><g transform="translate(252.731507, 250.499028)"><g><path d="M 3.625 -14.765625 C 5.300781 -13.367188 6.25 -11.875 6.46875 -10.28125 C 6.6875 -8.695312 6.144531 -7.117188 4.84375 -5.546875 C 3.550781 -3.984375 2.101562 -3.160156 0.5 -3.078125 C -1.09375 -3.003906 -2.738281 -3.671875 -4.4375 -5.078125 C -6.125 -6.472656 -7.066406 -7.960938 -7.265625 -9.546875 C -7.472656 -11.128906 -6.925781 -12.703125 -5.625 -14.265625 C -4.332031 -15.828125 -2.890625 -16.648438 -1.296875 -16.734375 C 0.285156 -16.816406 1.925781 -16.160156 3.625 -14.765625 Z M -2.53125 -7.328125 C -1.40625 -6.390625 -0.375 -5.894531 0.5625 -5.84375 C 1.5 -5.800781 2.320312 -6.207031 3.03125 -7.0625 C 4.457031 -8.789062 4.03125 -10.601562 1.75 -12.5 C -0.550781 -14.40625 -2.410156 -14.5 -3.828125 -12.78125 C -4.535156 -11.925781 -4.78125 -11.035156 -4.5625 -10.109375 C -4.351562 -9.191406 -3.675781 -8.265625 -2.53125 -7.328125 Z M -2.53125 -7.328125 "/></g></g></g><g fill="#ffffff" fill-opacity="1"><g transform="translate(263.53665, 237.117891)"><g><path d="M 6.453125 -11.75 L 4.734375 -8.609375 L -6.796875 -8.390625 L -6.84375 -8.3125 C -5.25 -7.570312 -4.117188 -7.015625 -3.453125 -6.640625 L 2 -3.65625 L 0.796875 -1.46875 L -10.8125 -7.84375 L -9.109375 -10.9375 L 2.34375 -11.203125 L 2.375 -11.25 C 0.832031 -12 -0.25 -12.546875 -0.875 -12.890625 L -6.375 -15.90625 L -5.15625 -18.125 Z M 6.453125 -11.75 "/></g></g></g><g fill="#ffffff" fill-opacity="1"><g transform="translate(115.823155, 156.63854)"><g><path d="M 2 -3.9375 L 0.75 -1.484375 L -11.046875 -7.484375 L -7.609375 -14.25 L -5.5625 -13.203125 L -7.75 -8.890625 L -4.703125 -7.34375 L -2.671875 -11.34375 L -0.640625 -10.3125 L -2.671875 -6.3125 Z M 2 -3.9375 "/></g></g></g><g fill="#ffffff" fill-opacity="1"><g transform="translate(120.710169, 147.316837)"><g><path d="M 0.921875 -1.390625 L -10.140625 -8.640625 L -8.609375 -10.984375 L 2.453125 -3.734375 Z M 0.921875 -1.390625 "/></g></g></g><g fill="#ffffff" fill-opacity="1"><g transform="translate(124.025683, 141.85484)"><g><path d="M -1.265625 -9.90625 L 2.15625 -13.890625 L 7.359375 -9.421875 C 6.992188 -8.597656 6.609375 -7.863281 6.203125 -7.21875 C 5.804688 -6.570312 5.359375 -5.953125 4.859375 -5.359375 C 3.554688 -3.847656 2.113281 -3.070312 0.53125 -3.03125 C -1.039062 -3 -2.660156 -3.695312 -4.328125 -5.125 C -5.941406 -6.519531 -6.804688 -8.070312 -6.921875 -9.78125 C -7.046875 -11.488281 -6.398438 -13.164062 -4.984375 -14.8125 C -4.097656 -15.84375 -3.035156 -16.660156 -1.796875 -17.265625 L -0.703125 -15.078125 C -1.703125 -14.660156 -2.539062 -14.054688 -3.21875 -13.265625 C -4 -12.347656 -4.320312 -11.347656 -4.1875 -10.265625 C -4.050781 -9.179688 -3.457031 -8.191406 -2.40625 -7.296875 C -1.320312 -6.359375 -0.300781 -5.863281 0.65625 -5.8125 C 1.613281 -5.769531 2.457031 -6.175781 3.1875 -7.03125 C 3.5625 -7.46875 3.90625 -7.953125 4.21875 -8.484375 L 2.125 -10.28125 L 0.5 -8.390625 Z M -1.265625 -9.90625 "/></g></g></g><g fill="#ffffff" fill-opacity="1"><g transform="translate(132.691375, 131.70022)"><g><path d="M 9.6875 -7.90625 L 7.515625 -6.140625 L 3.90625 -10.5625 L -0.140625 -7.25 L 3.46875 -2.828125 L 1.296875 -1.0625 L -7.078125 -11.3125 L -4.90625 -13.078125 L -1.625 -9.0625 L 2.421875 -12.375 L -0.859375 -16.390625 L 1.3125 -18.15625 Z M 9.6875 -7.90625 "/></g></g></g><g fill="#ffffff" fill-opacity="1"><g transform="translate(143.777604, 122.832872)"><g><path d="M 5.859375 -3.390625 L 3.4375 -1.984375 L -2.015625 -11.421875 L -5.125 -9.625 L -6.296875 -11.640625 L 2.34375 -16.640625 L 3.515625 -14.625 L 0.40625 -12.828125 Z M 5.859375 -3.390625 "/></g></g></g><g fill="#ffffff" fill-opacity="1"><g transform="translate(158.227159, 115.195912)"><g><path d="M 4.203125 -1.375 L 1.59375 -0.515625 L -2.515625 -13.09375 L 4.6875 -15.453125 L 5.390625 -13.265625 L 0.796875 -11.765625 L 1.859375 -8.515625 L 6.125 -9.90625 L 6.84375 -7.734375 L 2.578125 -6.34375 Z M 4.203125 -1.375 "/></g></g></g><g fill="#ffffff" fill-opacity="1"><g transform="translate(167.878167, 111.847928)"><g><path d="M 12.46875 -8.65625 C 12.8125 -6.488281 12.539062 -4.738281 11.65625 -3.40625 C 10.769531 -2.082031 9.320312 -1.265625 7.3125 -0.953125 C 5.3125 -0.640625 3.679688 -0.976562 2.421875 -1.96875 C 1.171875 -2.96875 0.375 -4.5625 0.03125 -6.75 C -0.300781 -8.914062 -0.0195312 -10.65625 0.875 -11.96875 C 1.769531 -13.289062 3.21875 -14.109375 5.21875 -14.421875 C 7.226562 -14.734375 8.851562 -14.390625 10.09375 -13.390625 C 11.34375 -12.398438 12.132812 -10.820312 12.46875 -8.65625 Z M 2.9375 -7.171875 C 3.164062 -5.722656 3.617188 -4.664062 4.296875 -4 C 4.972656 -3.34375 5.859375 -3.101562 6.953125 -3.28125 C 9.171875 -3.625 10.046875 -5.265625 9.578125 -8.203125 C 9.117188 -11.148438 7.785156 -12.453125 5.578125 -12.109375 C 4.484375 -11.941406 3.710938 -11.441406 3.265625 -10.609375 C 2.816406 -9.773438 2.707031 -8.628906 2.9375 -7.171875 Z M 2.9375 -7.171875 "/></g></g></g><g fill="#ffffff" fill-opacity="1"><g transform="translate(182.407589, 109.679108)"><g><path d="M 4.59375 -7.28125 L 5.5 -7.265625 C 6.382812 -7.242188 7.039062 -7.378906 7.46875 -7.671875 C 7.894531 -7.960938 8.117188 -8.421875 8.140625 -9.046875 C 8.148438 -9.679688 7.941406 -10.132812 7.515625 -10.40625 C 7.085938 -10.675781 6.425781 -10.820312 5.53125 -10.84375 L 4.671875 -10.859375 Z M 4.5625 -5 L 4.46875 0.078125 L 1.671875 0.03125 L 1.90625 -13.203125 L 5.75 -13.140625 C 7.550781 -13.109375 8.875 -12.753906 9.71875 -12.078125 C 10.570312 -11.410156 10.988281 -10.410156 10.96875 -9.078125 C 10.945312 -8.296875 10.71875 -7.601562 10.28125 -7 C 9.84375 -6.40625 9.234375 -5.941406 8.453125 -5.609375 C 10.378906 -2.597656 11.640625 -0.65625 12.234375 0.21875 L 9.125 0.15625 L 6.0625 -4.96875 Z M 4.5625 -5 "/></g></g></g><g fill="#ffffff" fill-opacity="1"><g transform="translate(200.106177, 110.642929)"><g><path d="M 9.734375 -8.984375 C 8.710938 -9.242188 7.828125 -9.054688 7.078125 -8.421875 C 6.328125 -7.796875 5.78125 -6.800781 5.4375 -5.4375 C 4.71875 -2.570312 5.429688 -0.867188 7.578125 -0.328125 C 8.484375 -0.109375 9.632812 -0.0625 11.03125 -0.1875 L 10.46875 2.09375 C 9.300781 2.28125 8.066406 2.207031 6.765625 1.875 C 4.898438 1.414062 3.613281 0.492188 2.90625 -0.890625 C 2.195312 -2.273438 2.109375 -4.019531 2.640625 -6.125 C 2.972656 -7.46875 3.503906 -8.582031 4.234375 -9.46875 C 4.972656 -10.351562 5.863281 -10.953125 6.90625 -11.265625 C 7.957031 -11.578125 9.09375 -11.578125 10.3125 -11.265625 C 11.570312 -10.953125 12.75 -10.332031 13.84375 -9.40625 L 12.421875 -7.4375 C 11.992188 -7.78125 11.554688 -8.09375 11.109375 -8.375 C 10.671875 -8.664062 10.210938 -8.867188 9.734375 -8.984375 Z M 9.734375 -8.984375 "/></g></g></g><g fill="#ffffff" fill-opacity="1"><g transform="translate(211.585105, 113.398579)"><g><path d="M 11.453125 5 L 8.890625 3.875 L 11.171875 -1.359375 L 6.375 -3.453125 L 4.09375 1.78125 L 1.53125 0.671875 L 6.828125 -11.453125 L 9.390625 -10.34375 L 7.3125 -5.59375 L 12.109375 -3.5 L 14.1875 -8.25 L 16.75 -7.125 Z M 11.453125 5 "/></g></g></g><g fill="#ffffff" fill-opacity="1"><g transform="translate(224.509545, 119.097539)"><g><path d="M 8.140625 5.390625 L 9.078125 2.234375 L 5.0625 -0.421875 L 2.515625 1.65625 L 0 0 L 11.21875 -8.5 L 14.078125 -6.609375 L 10.65625 7.046875 Z M 9.828125 -0.109375 C 10.648438 -2.972656 11.117188 -4.59375 11.234375 -4.96875 C 11.347656 -5.34375 11.445312 -5.632812 11.53125 -5.84375 C 10.9375 -5.3125 9.40625 -4.03125 6.9375 -2 Z M 9.828125 -0.109375 "/></g></g></g><g fill="#ffffff" fill-opacity="1"><g transform="translate(235.173331, 126.019465)"><g><path d="M 9.6875 9.265625 L 7.109375 6.796875 L 9.859375 -4.421875 L 9.796875 -4.46875 C 8.660156 -3.113281 7.832031 -2.164062 7.3125 -1.625 L 3.015625 2.875 L 1.203125 1.15625 L 10.34375 -8.40625 L 12.90625 -5.96875 L 10.21875 5.15625 L 10.265625 5.203125 C 11.378906 3.898438 12.179688 2.992188 12.671875 2.484375 L 17 -2.046875 L 18.828125 -0.296875 Z M 9.6875 9.265625 "/></g></g></g><g fill="#ffffff" fill-opacity="1"><g transform="translate(245.937941, 136.40071)"><g><path d="M 9.9375 1.078125 L 13.015625 5.328125 L 7.453125 9.34375 C 6.734375 8.8125 6.101562 8.273438 5.5625 7.734375 C 5.03125 7.191406 4.535156 6.601562 4.078125 5.96875 C 2.910156 4.351562 2.492188 2.773438 2.828125 1.234375 C 3.160156 -0.304688 4.21875 -1.71875 6 -3 C 7.726562 -4.25 9.4375 -4.726562 11.125 -4.4375 C 12.8125 -4.15625 14.285156 -3.140625 15.546875 -1.390625 C 16.347656 -0.285156 16.898438 0.929688 17.203125 2.265625 L 14.828125 2.84375 C 14.648438 1.769531 14.257812 0.8125 13.65625 -0.03125 C 12.945312 -1.007812 12.046875 -1.554688 10.953125 -1.671875 C 9.867188 -1.785156 8.769531 -1.441406 7.65625 -0.640625 C 6.488281 0.203125 5.769531 1.082031 5.5 2 C 5.238281 2.914062 5.4375 3.828125 6.09375 4.734375 C 6.425781 5.210938 6.816406 5.664062 7.265625 6.09375 L 9.5 4.46875 L 8.046875 2.4375 Z M 9.9375 1.078125 "/></g></g></g><g fill="#ffffff" fill-opacity="1"><g transform="translate(253.736987, 147.394988)"><g><path d="M 4.21875 8.265625 L 0.765625 1.484375 L 12.5625 -4.53125 L 16.015625 2.25 L 13.96875 3.296875 L 11.78125 -0.984375 L 9.1875 0.328125 L 11.21875 4.3125 L 9.171875 5.359375 L 7.140625 1.375 L 4.09375 2.9375 L 6.28125 7.21875 Z M 4.21875 8.265625 "/></g></g></g><g clip-path="url(#id4)"><path fill="#ffffff" d="M 187.304688 253.703125 C 150.734375 253.703125 120.953125 223.917969 120.953125 187.304688 C 120.953125 150.691406 150.734375 120.953125 187.304688 120.953125 C 223.871094 120.953125 253.65625 150.734375 253.65625 187.304688 C 253.703125 223.917969 223.917969 253.703125 187.304688 253.703125 Z M 187.304688 122.074219 C 151.320312 122.074219 122.074219 151.320312 122.074219 187.304688 C 122.074219 223.289062 151.363281 252.578125 187.304688 252.578125 C 223.242188 252.578125 252.578125 223.289062 252.578125 187.304688 C 252.578125 151.320312 223.289062 122.074219 187.304688 122.074219 Z M 187.304688 122.074219 " fill-opacity="1" fill-rule="nonzero"/></g><g clip-path="url(#id5)"><path fill="#ffffff" d="M 187.304688 253.703125 C 150.734375 253.703125 120.953125 223.917969 120.953125 187.304688 C 120.953125 150.691406 150.734375 120.953125 187.304688 120.953125 C 223.871094 120.953125 253.65625 150.734375 253.65625 187.304688 C 253.703125 223.917969 223.917969 253.703125 187.304688 253.703125 Z M 187.304688 122.074219 C 151.320312 122.074219 122.074219 151.320312 122.074219 187.304688 C 122.074219 223.289062 151.363281 252.578125 187.304688 252.578125 C 223.242188 252.578125 252.578125 223.289062 252.578125 187.304688 C 252.578125 151.320312 223.289062 122.074219 187.304688 122.074219 Z M 187.304688 122.074219 " fill-opacity="1" fill-rule="nonzero"/></g><g clip-path="url(#id6)"><path fill="#8ccdb0" d="M 221.714844 168.9375 C 221.71875 168.9375 221.71875 168.9375 221.722656 168.9375 C 221.722656 170.207031 221.699219 171.480469 221.726562 172.75 C 221.765625 174.359375 222.296875 175.800781 223.195312 177.144531 C 223.632812 177.796875 224.027344 178.550781 224.179688 179.3125 C 224.695312 181.90625 225.09375 184.527344 225.535156 187.132812 C 225.785156 188.597656 226.394531 189.132812 227.839844 189.152344 C 228.398438 189.160156 228.957031 189.15625 229.515625 189.152344 C 230.945312 189.136719 231.621094 188.585938 231.863281 187.167969 C 232.1875 185.257812 232.433594 183.328125 232.808594 181.429688 C 233.070312 180.09375 233.195312 178.589844 233.910156 177.515625 C 234.972656 175.925781 235.648438 174.320312 235.679688 172.441406 C 235.722656 170.011719 235.699219 167.582031 235.691406 165.152344 C 235.683594 163.316406 234.871094 161.949219 233.128906 161.347656 C 230.160156 160.324219 227.140625 160.328125 224.179688 161.371094 C 222.542969 161.953125 221.738281 163.257812 221.71875 165.007812 C 221.699219 166.316406 221.714844 167.625 221.714844 168.9375 Z M 234.195312 153.679688 C 234.214844 150.503906 231.734375 147.941406 228.609375 147.90625 C 225.550781 147.867188 222.910156 150.484375 222.867188 153.585938 C 222.824219 156.695312 225.367188 159.277344 228.511719 159.308594 C 231.695312 159.339844 234.175781 156.882812 234.195312 153.679688 Z M 234.195312 153.679688 " fill-opacity="1" fill-rule="nonzero"/></g><g clip-path="url(#id7)"><path fill="#8ccdb0" d="M 221.714844 168.9375 C 221.714844 167.625 221.699219 166.316406 221.71875 165.007812 C 221.738281 163.257812 222.542969 161.953125 224.179688 161.371094 C 227.140625 160.328125 230.160156 160.324219 233.128906 161.347656 C 234.871094 161.949219 235.683594 163.316406 235.691406 165.152344 C 235.699219 167.582031 235.722656 170.011719 235.679688 172.441406 C 235.648438 174.320312 234.972656 175.925781 233.910156 177.515625 C 233.195312 178.589844 233.070312 180.09375 232.808594 181.429688 C 232.433594 183.328125 232.1875 185.257812 231.863281 187.167969 C 231.621094 188.585938 230.945312 189.136719 229.515625 189.152344 C 228.957031 189.15625 228.398438 189.160156 227.839844 189.152344 C 226.394531 189.132812 225.785156 188.597656 225.535156 187.132812 C 225.09375 184.527344 224.695312 181.90625 224.179688 179.3125 C 224.027344 178.550781 223.632812 177.796875 223.195312 177.144531 C 222.296875 175.800781 221.765625 174.359375 221.726562 172.75 C 221.699219 171.480469 221.722656 170.207031 221.722656 168.933594 C 221.71875 168.9375 221.71875 168.9375 221.714844 168.9375 Z M 221.714844 168.9375 " fill-opacity="1" fill-rule="evenodd"/></g><g clip-path="url(#id8)"><path fill="#8ccdb0" d="M 234.195312 153.679688 C 234.175781 156.882812 231.695312 159.339844 228.511719 159.308594 C 225.367188 159.277344 222.824219 156.695312 222.867188 153.585938 C 222.910156 150.484375 225.550781 147.867188 228.609375 147.90625 C 231.734375 147.941406 234.214844 150.503906 234.195312 153.679688 Z M 234.195312 153.679688 " fill-opacity="1" fill-rule="evenodd"/></g><g clip-path="url(#id9)"><path fill="#8ccdb0" d="M 167.363281 168.9375 C 167.367188 168.9375 167.367188 168.9375 167.371094 168.9375 C 167.371094 170.207031 167.347656 171.480469 167.375 172.75 C 167.414062 174.359375 167.949219 175.800781 168.84375 177.144531 C 169.28125 177.796875 169.675781 178.550781 169.828125 179.3125 C 170.34375 181.90625 170.742188 184.527344 171.183594 187.132812 C 171.433594 188.597656 172.042969 189.132812 173.488281 189.152344 C 174.046875 189.160156 174.601562 189.15625 175.160156 189.152344 C 176.59375 189.136719 177.265625 188.585938 177.511719 187.167969 C 177.835938 185.257812 178.082031 183.328125 178.457031 181.429688 C 178.71875 180.09375 178.84375 178.589844 179.5625 177.515625 C 180.621094 175.925781 181.296875 174.320312 181.328125 172.441406 C 181.371094 170.011719 181.347656 167.582031 181.339844 165.152344 C 181.332031 163.316406 180.523438 161.949219 178.777344 161.347656 C 175.808594 160.324219 172.789062 160.328125 169.828125 161.371094 C 168.191406 161.953125 167.386719 163.257812 167.363281 165.007812 C 167.347656 166.316406 167.363281 167.625 167.363281 168.9375 Z M 179.84375 153.679688 C 179.863281 150.503906 177.382812 147.941406 174.253906 147.90625 C 171.199219 147.867188 168.554688 150.484375 168.511719 153.585938 C 168.472656 156.695312 171.015625 159.277344 174.160156 159.308594 C 177.339844 159.339844 179.824219 156.882812 179.84375 153.679688 Z M 179.84375 153.679688 " fill-opacity="1" fill-rule="nonzero"/></g><path fill="#8ccdb0" d="M 167.363281 168.9375 C 167.363281 167.625 167.347656 166.316406 167.367188 165.007812 C 167.386719 163.257812 168.191406 161.953125 169.828125 161.371094 C 172.789062 160.328125 175.808594 160.324219 178.777344 161.347656 C 180.523438 161.949219 181.332031 163.316406 181.339844 165.152344 C 181.347656 167.582031 181.371094 170.011719 181.328125 172.441406 C 181.296875 174.320312 180.621094 175.925781 179.5625 177.515625 C 178.84375 178.589844 178.71875 180.09375 178.457031 181.429688 C 178.082031 183.328125 177.835938 185.257812 177.511719 187.167969 C 177.265625 188.585938 176.59375 189.136719 175.164062 189.152344 C 174.605469 189.15625 174.046875 189.160156 173.488281 189.152344 C 172.042969 189.132812 171.433594 188.597656 171.183594 187.132812 C 170.742188 184.527344 170.34375 181.90625 169.828125 179.3125 C 169.675781 178.550781 169.28125 177.796875 168.84375 177.144531 C 167.949219 175.800781 167.414062 174.359375 167.375 172.75 C 167.347656 171.480469 167.371094 170.207031 167.371094 168.933594 C 167.367188 168.9375 167.367188 168.9375 167.363281 168.9375 Z M 167.363281 168.9375 " fill-opacity="1" fill-rule="evenodd"/><g clip-path="url(#id10)"><path fill="#8ccdb0" d="M 179.84375 153.679688 C 179.824219 156.882812 177.339844 159.339844 174.160156 159.308594 C 171.015625 159.277344 168.472656 156.695312 168.511719 153.585938 C 168.554688 150.484375 171.199219 147.867188 174.253906 147.90625 C 177.382812 147.941406 179.863281 150.503906 179.84375 153.679688 Z M 179.84375 153.679688 " fill-opacity="1" fill-rule="evenodd"/></g><g clip-path="url(#id11)"><path fill="#8ccdb0" d="M 138.980469 168.9375 C 138.984375 168.9375 138.988281 168.9375 138.988281 168.9375 C 138.988281 170.207031 138.964844 171.480469 138.996094 172.75 C 139.03125 174.359375 139.566406 175.800781 140.460938 177.144531 C 140.898438 177.796875 141.296875 178.550781 141.449219 179.3125 C 141.960938 181.90625 142.359375 184.527344 142.804688 187.132812 C 143.050781 188.597656 143.660156 189.132812 145.105469 189.152344 C 145.664062 189.160156 146.222656 189.15625 146.78125 189.152344 C 148.214844 189.136719 148.886719 188.585938 149.128906 187.167969 C 149.457031 185.257812 149.699219 183.328125 150.078125 181.429688 C 150.339844 180.09375 150.464844 178.589844 151.179688 177.515625 C 152.238281 175.925781 152.917969 174.320312 152.949219 172.441406 C 152.992188 170.011719 152.96875 167.582031 152.957031 165.152344 C 152.949219 163.316406 152.140625 161.949219 150.394531 161.347656 C 147.425781 160.324219 144.40625 160.328125 141.445312 161.371094 C 139.808594 161.953125 139.007812 163.257812 138.984375 165.007812 C 138.96875 166.316406 138.980469 167.625 138.980469 168.9375 Z M 151.464844 153.679688 C 151.480469 150.503906 149.003906 147.941406 145.875 147.90625 C 142.820312 147.867188 140.175781 150.484375 140.132812 153.585938 C 140.089844 156.695312 142.636719 159.277344 145.777344 159.308594 C 148.960938 159.339844 151.445312 156.882812 151.464844 153.679688 Z M 151.464844 153.679688 " fill-opacity="1" fill-rule="nonzero"/></g><g clip-path="url(#id12)"><path fill="#8ccdb0" d="M 138.980469 168.9375 C 138.980469 167.625 138.96875 166.316406 138.984375 165.007812 C 139.007812 163.257812 139.808594 161.953125 141.445312 161.371094 C 144.40625 160.328125 147.425781 160.324219 150.394531 161.347656 C 152.140625 161.949219 152.949219 163.316406 152.957031 165.152344 C 152.96875 167.582031 152.992188 170.011719 152.949219 172.441406 C 152.917969 174.320312 152.238281 175.925781 151.179688 177.515625 C 150.464844 178.589844 150.339844 180.09375 150.078125 181.429688 C 149.703125 183.328125 149.457031 185.257812 149.128906 187.167969 C 148.886719 188.585938 148.214844 189.136719 146.78125 189.152344 C 146.222656 189.15625 145.664062 189.160156 145.105469 189.152344 C 143.660156 189.132812 143.050781 188.597656 142.804688 187.132812 C 142.359375 184.527344 141.960938 181.90625 141.449219 179.3125 C 141.296875 178.550781 140.898438 177.796875 140.460938 177.144531 C 139.566406 175.800781 139.03125 174.359375 138.996094 172.75 C 138.96875 171.480469 138.988281 170.207031 138.988281 168.933594 C 138.988281 168.9375 138.984375 168.9375 138.980469 168.9375 Z M 138.980469 168.9375 " fill-opacity="1" fill-rule="evenodd"/></g><g clip-path="url(#id13)"><path fill="#8ccdb0" d="M 151.464844 153.679688 C 151.445312 156.882812 148.960938 159.339844 145.777344 159.308594 C 142.636719 159.277344 140.089844 156.695312 140.132812 153.585938 C 140.175781 150.484375 142.820312 147.867188 145.875 147.90625 C 149.003906 147.941406 151.480469 150.503906 151.464844 153.679688 Z M 151.464844 153.679688 " fill-opacity="1" fill-rule="evenodd"/></g><g clip-path="url(#id14)"><path fill="#8ccdb0" d="M 194.585938 168.9375 C 194.589844 168.9375 194.59375 168.9375 194.597656 168.9375 C 194.597656 170.207031 194.574219 171.480469 194.601562 172.75 C 194.636719 174.359375 195.171875 175.800781 196.066406 177.144531 C 196.503906 177.796875 196.902344 178.550781 197.054688 179.3125 C 197.570312 181.90625 197.964844 184.527344 198.410156 187.132812 C 198.660156 188.597656 199.269531 189.132812 200.710938 189.152344 C 201.269531 189.160156 201.828125 189.15625 202.386719 189.152344 C 203.820312 189.136719 204.492188 188.585938 204.734375 187.167969 C 205.0625 185.257812 205.308594 183.328125 205.683594 181.429688 C 205.945312 180.09375 206.070312 178.589844 206.785156 177.515625 C 207.847656 175.925781 208.523438 174.320312 208.554688 172.441406 C 208.597656 170.011719 208.574219 167.582031 208.566406 165.152344 C 208.558594 163.316406 207.746094 161.949219 206.003906 161.347656 C 203.03125 160.324219 200.015625 160.328125 197.054688 161.371094 C 195.414062 161.953125 194.613281 163.257812 194.589844 165.007812 C 194.574219 166.316406 194.585938 167.625 194.585938 168.9375 Z M 207.070312 153.679688 C 207.089844 150.503906 204.609375 147.941406 201.480469 147.90625 C 198.425781 147.867188 195.78125 150.484375 195.738281 153.585938 C 195.695312 156.695312 198.242188 159.277344 201.382812 159.308594 C 204.566406 159.339844 207.050781 156.882812 207.070312 153.679688 Z M 207.070312 153.679688 " fill-opacity="1" fill-rule="nonzero"/></g><path fill="#8ccdb0" d="M 194.585938 168.9375 C 194.585938 167.625 194.574219 166.316406 194.589844 165.007812 C 194.613281 163.257812 195.414062 161.953125 197.054688 161.371094 C 200.015625 160.328125 203.035156 160.324219 206.003906 161.347656 C 207.746094 161.949219 208.558594 163.316406 208.566406 165.152344 C 208.574219 167.582031 208.597656 170.011719 208.554688 172.441406 C 208.523438 174.320312 207.847656 175.925781 206.785156 177.515625 C 206.070312 178.589844 205.945312 180.09375 205.683594 181.429688 C 205.308594 183.328125 205.0625 185.257812 204.734375 187.167969 C 204.492188 188.585938 203.820312 189.136719 202.386719 189.152344 C 201.828125 189.15625 201.269531 189.160156 200.710938 189.152344 C 199.269531 189.132812 198.660156 188.597656 198.410156 187.132812 C 197.964844 184.527344 197.570312 181.90625 197.054688 179.3125 C 196.902344 178.550781 196.507812 177.796875 196.066406 177.144531 C 195.171875 175.800781 194.636719 174.359375 194.601562 172.75 C 194.574219 171.480469 194.597656 170.207031 194.597656 168.933594 C 194.59375 168.9375 194.589844 168.9375 194.585938 168.9375 Z M 194.585938 168.9375 " fill-opacity="1" fill-rule="evenodd"/><g clip-path="url(#id15)"><path fill="#8ccdb0" d="M 207.070312 153.679688 C 207.050781 156.882812 204.566406 159.339844 201.382812 159.308594 C 198.242188 159.277344 195.695312 156.695312 195.738281 153.585938 C 195.78125 150.484375 198.425781 147.867188 201.480469 147.90625 C 204.609375 147.941406 207.089844 150.503906 207.070312 153.679688 Z M 207.070312 153.679688 " fill-opacity="1" fill-rule="evenodd"/></g><g clip-path="url(#id16)"><g mask="url(#id17)"><g transform="matrix(1, 0, 0, 1, 221, 147)"><g clip-path="url(#id21)"><g clip-path="url(#id18)"><path fill="#000000" d="M 0.714844 21.9375 C 0.71875 21.9375 0.71875 21.9375 0.722656 21.9375 C 0.722656 23.207031 0.699219 24.480469 0.726562 25.75 C 0.765625 27.359375 1.296875 28.800781 2.195312 30.144531 C 2.632812 30.796875 3.027344 31.550781 3.179688 32.3125 C 3.695312 34.90625 4.09375 37.527344 4.535156 40.132812 C 4.785156 41.597656 5.394531 42.132812 6.839844 42.152344 C 7.398438 42.160156 7.957031 42.15625 8.515625 42.152344 C 9.945312 42.136719 10.621094 41.585938 10.863281 40.167969 C 11.1875 38.257812 11.433594 36.328125 11.808594 34.429688 C 12.070312 33.09375 12.195312 31.589844 12.910156 30.515625 C 13.972656 28.925781 14.648438 27.320312 14.679688 25.441406 C 14.722656 23.011719 14.699219 20.582031 14.691406 18.152344 C 14.683594 16.316406 13.871094 14.949219 12.128906 14.347656 C 9.160156 13.324219 6.140625 13.328125 3.179688 14.371094 C 1.542969 14.953125 0.738281 16.257812 0.71875 18.007812 C 0.699219 19.316406 0.714844 20.625 0.714844 21.9375 Z M 13.195312 6.679688 C 13.214844 3.503906 10.734375 0.941406 7.609375 0.90625 C 4.550781 0.867188 1.910156 3.484375 1.867188 6.585938 C 1.824219 9.695312 4.367188 12.277344 7.511719 12.308594 C 10.695312 12.339844 13.175781 9.882812 13.195312 6.679688 Z M 13.195312 6.679688 " fill-opacity="1" fill-rule="nonzero"/></g><g clip-path="url(#id19)"><path fill="#000000" d="M 0.714844 21.9375 C 0.714844 20.625 0.699219 19.316406 0.71875 18.007812 C 0.738281 16.257812 1.542969 14.953125 3.179688 14.371094 C 6.140625 13.328125 9.160156 13.324219 12.128906 14.347656 C 13.871094 14.949219 14.683594 16.316406 14.691406 18.152344 C 14.699219 20.582031 14.722656 23.011719 14.679688 25.441406 C 14.648438 27.320312 13.972656 28.925781 12.910156 30.515625 C 12.195312 31.589844 12.070312 33.09375 11.808594 34.429688 C 11.433594 36.328125 11.1875 38.257812 10.863281 40.167969 C 10.621094 41.585938 9.945312 42.136719 8.515625 42.152344 C 7.957031 42.15625 7.398438 42.160156 6.839844 42.152344 C 5.394531 42.132812 4.785156 41.597656 4.535156 40.132812 C 4.09375 37.527344 3.695312 34.90625 3.179688 32.3125 C 3.027344 31.550781 2.632812 30.796875 2.195312 30.144531 C 1.296875 28.800781 0.765625 27.359375 0.726562 25.75 C 0.699219 24.480469 0.722656 23.207031 0.722656 21.933594 C 0.71875 21.9375 0.71875 21.9375 0.714844 21.9375 Z M 0.714844 21.9375 " fill-opacity="1" fill-rule="evenodd"/></g><g clip-path="url(#id20)"><path fill="#000000" d="M 13.195312 6.679688 C 13.175781 9.882812 10.695312 12.339844 7.511719 12.308594 C 4.367188 12.277344 1.824219 9.695312 1.867188 6.585938 C 1.910156 3.484375 4.550781 0.867188 7.609375 0.90625 C 10.734375 0.941406 13.214844 3.503906 13.195312 6.679688 Z M 13.195312 6.679688 " fill-opacity="1" fill-rule="evenodd"/></g></g></g></g></g><g clip-path="url(#id22)"><g mask="url(#id23)"><g transform="matrix(1, 0, 0, 1, 167, 147)"><g clip-path="url(#id27)"><g clip-path="url(#id24)"><path fill="#000000" d="M 0.363281 21.9375 C 0.367188 21.9375 0.367188 21.9375 0.371094 21.9375 C 0.371094 23.207031 0.347656 24.480469 0.375 25.75 C 0.414062 27.359375 0.949219 28.800781 1.84375 30.144531 C 2.28125 30.796875 2.675781 31.550781 2.828125 32.3125 C 3.34375 34.90625 3.742188 37.527344 4.183594 40.132812 C 4.433594 41.597656 5.042969 42.132812 6.488281 42.152344 C 7.046875 42.160156 7.601562 42.15625 8.160156 42.152344 C 9.59375 42.136719 10.265625 41.585938 10.511719 40.167969 C 10.835938 38.257812 11.082031 36.328125 11.457031 34.429688 C 11.71875 33.09375 11.84375 31.589844 12.5625 30.515625 C 13.621094 28.925781 14.296875 27.320312 14.328125 25.441406 C 14.371094 23.011719 14.347656 20.582031 14.339844 18.152344 C 14.332031 16.316406 13.523438 14.949219 11.777344 14.347656 C 8.808594 13.324219 5.789062 13.328125 2.828125 14.371094 C 1.191406 14.953125 0.386719 16.257812 0.363281 18.007812 C 0.347656 19.316406 0.363281 20.625 0.363281 21.9375 Z M 12.84375 6.679688 C 12.863281 3.503906 10.382812 0.941406 7.253906 0.90625 C 4.199219 0.867188 1.554688 3.484375 1.511719 6.585938 C 1.472656 9.695312 4.015625 12.277344 7.160156 12.308594 C 10.339844 12.339844 12.824219 9.882812 12.84375 6.679688 Z M 12.84375 6.679688 " fill-opacity="1" fill-rule="nonzero"/></g><g clip-path="url(#id25)"><path fill="#000000" d="M 0.363281 21.9375 C 0.363281 20.625 0.347656 19.316406 0.367188 18.007812 C 0.386719 16.257812 1.191406 14.953125 2.828125 14.371094 C 5.789062 13.328125 8.808594 13.324219 11.777344 14.347656 C 13.523438 14.949219 14.332031 16.316406 14.339844 18.152344 C 14.347656 20.582031 14.371094 23.011719 14.328125 25.441406 C 14.296875 27.320312 13.621094 28.925781 12.5625 30.515625 C 11.84375 31.589844 11.71875 33.09375 11.457031 34.429688 C 11.082031 36.328125 10.835938 38.257812 10.511719 40.167969 C 10.265625 41.585938 9.59375 42.136719 8.164062 42.152344 C 7.605469 42.15625 7.046875 42.160156 6.488281 42.152344 C 5.042969 42.132812 4.433594 41.597656 4.183594 40.132812 C 3.742188 37.527344 3.34375 34.90625 2.828125 32.3125 C 2.675781 31.550781 2.28125 30.796875 1.84375 30.144531 C 0.949219 28.800781 0.414062 27.359375 0.375 25.75 C 0.347656 24.480469 0.371094 23.207031 0.371094 21.933594 C 0.367188 21.9375 0.367188 21.9375 0.363281 21.9375 Z M 0.363281 21.9375 " fill-opacity="1" fill-rule="evenodd"/></g><g clip-path="url(#id26)"><path fill="#000000" d="M 12.84375 6.679688 C 12.824219 9.882812 10.339844 12.339844 7.160156 12.308594 C 4.015625 12.277344 1.472656 9.695312 1.511719 6.585938 C 1.554688 3.484375 4.199219 0.867188 7.253906 0.90625 C 10.382812 0.941406 12.863281 3.503906 12.84375 6.679688 Z M 12.84375 6.679688 " fill-opacity="1" fill-rule="evenodd"/></g></g></g></g></g><g clip-path="url(#id28)"><g mask="url(#id29)"><g transform="matrix(1, 0, 0, 1, 138, 147)"><g clip-path="url(#id33)"><g clip-path="url(#id30)"><path fill="#000000" d="M 0.980469 21.9375 C 0.984375 21.9375 0.988281 21.9375 0.988281 21.9375 C 0.988281 23.207031 0.964844 24.480469 0.996094 25.75 C 1.03125 27.359375 1.566406 28.800781 2.460938 30.144531 C 2.898438 30.796875 3.296875 31.550781 3.449219 32.3125 C 3.960938 34.90625 4.359375 37.527344 4.804688 40.132812 C 5.050781 41.597656 5.660156 42.132812 7.105469 42.152344 C 7.664062 42.160156 8.222656 42.15625 8.78125 42.152344 C 10.214844 42.136719 10.886719 41.585938 11.128906 40.167969 C 11.457031 38.257812 11.699219 36.328125 12.078125 34.429688 C 12.339844 33.09375 12.464844 31.589844 13.179688 30.515625 C 14.238281 28.925781 14.917969 27.320312 14.949219 25.441406 C 14.992188 23.011719 14.96875 20.582031 14.957031 18.152344 C 14.949219 16.316406 14.140625 14.949219 12.394531 14.347656 C 9.425781 13.324219 6.40625 13.328125 3.445312 14.371094 C 1.808594 14.953125 1.007812 16.257812 0.984375 18.007812 C 0.96875 19.316406 0.980469 20.625 0.980469 21.9375 Z M 13.464844 6.679688 C 13.480469 3.503906 11.003906 0.941406 7.875 0.90625 C 4.820312 0.867188 2.175781 3.484375 2.132812 6.585938 C 2.089844 9.695312 4.636719 12.277344 7.777344 12.308594 C 10.960938 12.339844 13.445312 9.882812 13.464844 6.679688 Z M 13.464844 6.679688 " fill-opacity="1" fill-rule="nonzero"/></g><g clip-path="url(#id31)"><path fill="#000000" d="M 0.980469 21.9375 C 0.980469 20.625 0.96875 19.316406 0.984375 18.007812 C 1.007812 16.257812 1.808594 14.953125 3.445312 14.371094 C 6.40625 13.328125 9.425781 13.324219 12.394531 14.347656 C 14.140625 14.949219 14.949219 16.316406 14.957031 18.152344 C 14.96875 20.582031 14.992188 23.011719 14.949219 25.441406 C 14.917969 27.320312 14.238281 28.925781 13.179688 30.515625 C 12.464844 31.589844 12.339844 33.09375 12.078125 34.429688 C 11.703125 36.328125 11.457031 38.257812 11.128906 40.167969 C 10.886719 41.585938 10.214844 42.136719 8.78125 42.152344 C 8.222656 42.15625 7.664062 42.160156 7.105469 42.152344 C 5.660156 42.132812 5.050781 41.597656 4.804688 40.132812 C 4.359375 37.527344 3.960938 34.90625 3.449219 32.3125 C 3.296875 31.550781 2.898438 30.796875 2.460938 30.144531 C 1.566406 28.800781 1.03125 27.359375 0.996094 25.75 C 0.96875 24.480469 0.988281 23.207031 0.988281 21.933594 C 0.988281 21.9375 0.984375 21.9375 0.980469 21.9375 Z M 0.980469 21.9375 " fill-opacity="1" fill-rule="evenodd"/></g><g clip-path="url(#id32)"><path fill="#000000" d="M 13.464844 6.679688 C 13.445312 9.882812 10.960938 12.339844 7.777344 12.308594 C 4.636719 12.277344 2.089844 9.695312 2.132812 6.585938 C 2.175781 3.484375 4.820312 0.867188 7.875 0.90625 C 11.003906 0.941406 13.480469 3.503906 13.464844 6.679688 Z M 13.464844 6.679688 " fill-opacity="1" fill-rule="evenodd"/></g></g></g></g></g><g clip-path="url(#id34)"><g mask="url(#id35)"><g transform="matrix(1, 0, 0, 1, 194, 147)"><g clip-path="url(#id39)"><g clip-path="url(#id36)"><path fill="#000000" d="M 0.585938 21.9375 C 0.589844 21.9375 0.59375 21.9375 0.597656 21.9375 C 0.597656 23.207031 0.574219 24.480469 0.601562 25.75 C 0.636719 27.359375 1.171875 28.800781 2.066406 30.144531 C 2.503906 30.796875 2.902344 31.550781 3.054688 32.3125 C 3.570312 34.90625 3.964844 37.527344 4.410156 40.132812 C 4.660156 41.597656 5.269531 42.132812 6.710938 42.152344 C 7.269531 42.160156 7.828125 42.15625 8.386719 42.152344 C 9.820312 42.136719 10.492188 41.585938 10.734375 40.167969 C 11.0625 38.257812 11.308594 36.328125 11.683594 34.429688 C 11.945312 33.09375 12.070312 31.589844 12.785156 30.515625 C 13.847656 28.925781 14.523438 27.320312 14.554688 25.441406 C 14.597656 23.011719 14.574219 20.582031 14.566406 18.152344 C 14.558594 16.316406 13.746094 14.949219 12.003906 14.347656 C 9.03125 13.324219 6.015625 13.328125 3.054688 14.371094 C 1.414062 14.953125 0.613281 16.257812 0.589844 18.007812 C 0.574219 19.316406 0.585938 20.625 0.585938 21.9375 Z M 13.070312 6.679688 C 13.089844 3.503906 10.609375 0.941406 7.480469 0.90625 C 4.425781 0.867188 1.78125 3.484375 1.738281 6.585938 C 1.695312 9.695312 4.242188 12.277344 7.382812 12.308594 C 10.566406 12.339844 13.050781 9.882812 13.070312 6.679688 Z M 13.070312 6.679688 " fill-opacity="1" fill-rule="nonzero"/></g><g clip-path="url(#id37)"><path fill="#000000" d="M 0.585938 21.9375 C 0.585938 20.625 0.574219 19.316406 0.589844 18.007812 C 0.613281 16.257812 1.414062 14.953125 3.054688 14.371094 C 6.015625 13.328125 9.035156 13.324219 12.003906 14.347656 C 13.746094 14.949219 14.558594 16.316406 14.566406 18.152344 C 14.574219 20.582031 14.597656 23.011719 14.554688 25.441406 C 14.523438 27.320312 13.847656 28.925781 12.785156 30.515625 C 12.070312 31.589844 11.945312 33.09375 11.683594 34.429688 C 11.308594 36.328125 11.0625 38.257812 10.734375 40.167969 C 10.492188 41.585938 9.820312 42.136719 8.386719 42.152344 C 7.828125 42.15625 7.269531 42.160156 6.710938 42.152344 C 5.269531 42.132812 4.660156 41.597656 4.410156 40.132812 C 3.964844 37.527344 3.570312 34.90625 3.054688 32.3125 C 2.902344 31.550781 2.507812 30.796875 2.066406 30.144531 C 1.171875 28.800781 0.636719 27.359375 0.601562 25.75 C 0.574219 24.480469 0.597656 23.207031 0.597656 21.933594 C 0.59375 21.9375 0.589844 21.9375 0.585938 21.9375 Z M 0.585938 21.9375 " fill-opacity="1" fill-rule="evenodd"/></g><g clip-path="url(#id38)"><path fill="#000000" d="M 13.070312 6.679688 C 13.050781 9.882812 10.566406 12.339844 7.382812 12.308594 C 4.242188 12.277344 1.695312 9.695312 1.738281 6.585938 C 1.78125 3.484375 4.425781 0.867188 7.480469 0.90625 C 10.609375 0.941406 13.089844 3.503906 13.070312 6.679688 Z M 13.070312 6.679688 " fill-opacity="1" fill-rule="evenodd"/></g></g></g></g></g><path fill="#8ccdb0" d="M 211.402344 181.324219 C 211.40625 181.324219 211.40625 181.324219 211.410156 181.324219 C 211.410156 182.757812 211.386719 184.1875 211.417969 185.617188 C 211.457031 187.429688 212.058594 189.046875 213.066406 190.558594 C 213.558594 191.296875 214.003906 192.144531 214.175781 193.003906 C 214.753906 195.921875 215.203125 198.863281 215.703125 201.800781 C 215.980469 203.445312 216.667969 204.046875 218.292969 204.070312 C 218.921875 204.078125 219.546875 204.078125 220.175781 204.070312 C 221.789062 204.050781 222.546875 203.433594 222.816406 201.835938 C 223.183594 199.6875 223.460938 197.519531 223.882812 195.382812 C 224.179688 193.878906 224.320312 192.1875 225.125 190.980469 C 226.316406 189.191406 227.078125 187.382812 227.113281 185.273438 C 227.160156 182.539062 227.136719 179.804688 227.125 177.070312 C 227.117188 175.003906 226.207031 173.46875 224.242188 172.792969 C 220.902344 171.640625 217.507812 171.640625 214.175781 172.820312 C 212.332031 173.46875 211.429688 174.9375 211.40625 176.90625 C 211.386719 178.378906 211.402344 179.855469 211.402344 181.324219 Z M 225.445312 164.164062 C 225.464844 160.589844 222.675781 157.707031 219.15625 157.667969 C 215.71875 157.625 212.746094 160.566406 212.695312 164.058594 C 212.648438 167.554688 215.511719 170.457031 219.046875 170.496094 C 222.628906 170.53125 225.421875 167.765625 225.445312 164.164062 Z M 225.445312 164.164062 " fill-opacity="1" fill-rule="nonzero"/><path fill="#8ccdb0" d="M 211.402344 181.324219 C 211.402344 179.855469 211.386719 178.378906 211.40625 176.90625 C 211.429688 174.9375 212.332031 173.46875 214.175781 172.820312 C 217.507812 171.640625 220.902344 171.640625 224.242188 172.792969 C 226.207031 173.46875 227.117188 175.003906 227.125 177.070312 C 227.136719 179.804688 227.164062 182.539062 227.113281 185.273438 C 227.078125 187.382812 226.316406 189.191406 225.125 190.980469 C 224.320312 192.1875 224.179688 193.878906 223.882812 195.382812 C 223.460938 197.519531 223.183594 199.6875 222.816406 201.835938 C 222.546875 203.433594 221.789062 204.050781 220.175781 204.070312 C 219.546875 204.078125 218.921875 204.078125 218.292969 204.070312 C 216.667969 204.046875 215.980469 203.445312 215.703125 201.800781 C 215.203125 198.863281 214.753906 195.921875 214.175781 193.003906 C 214.003906 192.144531 213.558594 191.296875 213.066406 190.558594 C 212.058594 189.046875 211.457031 187.429688 211.417969 185.617188 C 211.386719 184.1875 211.410156 182.753906 211.410156 181.324219 C 211.40625 181.324219 211.40625 181.324219 211.402344 181.324219 Z M 211.402344 181.324219 " fill-opacity="1" fill-rule="evenodd"/><path fill="#8ccdb0" d="M 225.445312 164.164062 C 225.421875 167.765625 222.628906 170.53125 219.046875 170.496094 C 215.511719 170.457031 212.648438 167.554688 212.695312 164.058594 C 212.746094 160.566406 215.71875 157.625 219.15625 157.667969 C 222.675781 157.707031 225.464844 160.589844 225.445312 164.164062 Z M 225.445312 164.164062 " fill-opacity="1" fill-rule="evenodd"/><path fill="#8ccdb0" d="M 180.277344 181.324219 C 180.28125 181.324219 180.28125 181.324219 180.285156 181.324219 C 180.285156 182.757812 180.261719 184.1875 180.292969 185.617188 C 180.332031 187.429688 180.933594 189.046875 181.941406 190.558594 C 182.433594 191.296875 182.878906 192.144531 183.050781 193.003906 C 183.628906 195.921875 184.078125 198.863281 184.574219 201.800781 C 184.855469 203.445312 185.542969 204.046875 187.167969 204.070312 C 187.792969 204.078125 188.421875 204.078125 189.050781 204.070312 C 190.664062 204.050781 191.421875 203.433594 191.691406 201.835938 C 192.058594 199.6875 192.335938 197.519531 192.757812 195.382812 C 193.054688 193.878906 193.195312 192.1875 194 190.980469 C 195.191406 189.191406 195.953125 187.382812 195.988281 185.273438 C 196.035156 182.539062 196.011719 179.804688 196 177.070312 C 195.992188 175.003906 195.082031 173.46875 193.117188 172.792969 C 189.777344 171.640625 186.382812 171.640625 183.050781 172.820312 C 181.207031 173.46875 180.304688 174.9375 180.28125 176.90625 C 180.261719 178.378906 180.277344 179.855469 180.277344 181.324219 Z M 194.316406 164.164062 C 194.339844 160.589844 191.550781 157.707031 188.03125 157.667969 C 184.59375 157.625 181.621094 160.566406 181.570312 164.058594 C 181.523438 167.554688 184.386719 170.457031 187.921875 170.496094 C 191.503906 170.53125 194.296875 167.765625 194.316406 164.164062 Z M 194.316406 164.164062 " fill-opacity="1" fill-rule="nonzero"/><path fill="#8ccdb0" d="M 180.277344 181.324219 C 180.277344 179.855469 180.261719 178.378906 180.28125 176.90625 C 180.304688 174.9375 181.207031 173.46875 183.050781 172.820312 C 186.382812 171.640625 189.777344 171.640625 193.117188 172.792969 C 195.082031 173.46875 195.992188 175.003906 196 177.070312 C 196.011719 179.804688 196.035156 182.539062 195.988281 185.273438 C 195.953125 187.382812 195.191406 189.191406 194 190.980469 C 193.195312 192.1875 193.054688 193.878906 192.757812 195.382812 C 192.335938 197.519531 192.058594 199.6875 191.691406 201.835938 C 191.421875 203.433594 190.664062 204.050781 189.050781 204.070312 C 188.421875 204.078125 187.792969 204.078125 187.167969 204.070312 C 185.542969 204.046875 184.855469 203.445312 184.574219 201.800781 C 184.078125 198.863281 183.628906 195.921875 183.050781 193.003906 C 182.878906 192.144531 182.433594 191.296875 181.941406 190.558594 C 180.933594 189.046875 180.332031 187.429688 180.292969 185.617188 C 180.261719 184.1875 180.285156 182.753906 180.285156 181.324219 C 180.28125 181.324219 180.28125 181.324219 180.277344 181.324219 Z M 180.277344 181.324219 " fill-opacity="1" fill-rule="evenodd"/><path fill="#8ccdb0" d="M 194.316406 164.164062 C 194.296875 167.765625 191.503906 170.53125 187.921875 170.496094 C 184.386719 170.457031 181.523438 167.554688 181.570312 164.058594 C 181.621094 160.566406 184.59375 157.625 188.03125 157.667969 C 191.550781 157.707031 194.339844 160.589844 194.316406 164.164062 Z M 194.316406 164.164062 " fill-opacity="1" fill-rule="evenodd"/><path fill="#8ccdb0" d="M 150.257812 181.324219 C 150.257812 181.324219 150.261719 181.324219 150.265625 181.324219 C 150.265625 182.757812 150.238281 184.1875 150.273438 185.617188 C 150.3125 187.429688 150.914062 189.046875 151.921875 190.558594 C 152.414062 191.296875 152.859375 192.144531 153.03125 193.003906 C 153.609375 195.921875 154.054688 198.863281 154.554688 201.800781 C 154.835938 203.445312 155.519531 204.046875 157.144531 204.070312 C 157.773438 204.078125 158.402344 204.078125 159.03125 204.070312 C 160.640625 204.050781 161.398438 203.433594 161.671875 201.835938 C 162.039062 199.6875 162.316406 197.519531 162.738281 195.382812 C 163.03125 193.878906 163.171875 192.1875 163.980469 190.980469 C 165.171875 189.191406 165.933594 187.382812 165.96875 185.273438 C 166.015625 182.539062 165.992188 179.804688 165.980469 177.070312 C 165.972656 175.003906 165.058594 173.46875 163.097656 172.792969 C 159.757812 171.640625 156.359375 171.640625 153.03125 172.820312 C 151.1875 173.46875 150.285156 174.9375 150.257812 176.90625 C 150.238281 178.378906 150.257812 179.855469 150.257812 181.324219 Z M 164.296875 164.164062 C 164.320312 160.589844 161.53125 157.707031 158.011719 157.667969 C 154.570312 157.625 151.597656 160.566406 151.550781 164.058594 C 151.503906 167.554688 154.367188 170.457031 157.902344 170.496094 C 161.480469 170.53125 164.277344 167.765625 164.296875 164.164062 Z M 164.296875 164.164062 " fill-opacity="1" fill-rule="nonzero"/><path fill="#8ccdb0" d="M 150.257812 181.324219 C 150.257812 179.855469 150.238281 178.378906 150.257812 176.90625 C 150.285156 174.9375 151.1875 173.46875 153.03125 172.820312 C 156.359375 171.640625 159.757812 171.640625 163.097656 172.792969 C 165.058594 173.46875 165.972656 175.003906 165.980469 177.070312 C 165.992188 179.804688 166.015625 182.539062 165.96875 185.273438 C 165.933594 187.382812 165.171875 189.191406 163.980469 190.980469 C 163.171875 192.1875 163.03125 193.878906 162.738281 195.382812 C 162.316406 197.519531 162.039062 199.6875 161.671875 201.835938 C 161.398438 203.433594 160.640625 204.050781 159.03125 204.070312 C 158.402344 204.078125 157.773438 204.078125 157.144531 204.070312 C 155.519531 204.046875 154.835938 203.445312 154.554688 201.800781 C 154.054688 198.863281 153.609375 195.921875 153.03125 193.003906 C 152.859375 192.144531 152.414062 191.296875 151.921875 190.558594 C 150.914062 189.046875 150.3125 187.429688 150.273438 185.617188 C 150.238281 184.1875 150.265625 182.753906 150.265625 181.324219 C 150.261719 181.324219 150.257812 181.324219 150.257812 181.324219 Z M 150.257812 181.324219 " fill-opacity="1" fill-rule="evenodd"/><path fill="#8ccdb0" d="M 164.296875 164.164062 C 164.277344 167.765625 161.480469 170.53125 157.902344 170.496094 C 154.367188 170.457031 151.503906 167.554688 151.550781 164.058594 C 151.597656 160.566406 154.570312 157.625 158.011719 157.667969 C 161.53125 157.707031 164.320312 160.589844 164.296875 164.164062 Z M 164.296875 164.164062 " fill-opacity="1" fill-rule="evenodd"/><g mask="url(#id40)"><g transform="matrix(1, 0, 0, 1, 211, 157)"><g clip-path="url(#id44)"><g clip-path="url(#id41)"><path fill="#000000" d="M 0.402344 24.324219 C 0.40625 24.324219 0.40625 24.324219 0.410156 24.324219 C 0.410156 25.757812 0.386719 27.1875 0.417969 28.617188 C 0.457031 30.429688 1.058594 32.046875 2.066406 33.558594 C 2.558594 34.296875 3.003906 35.144531 3.175781 36.003906 C 3.753906 38.921875 4.203125 41.863281 4.703125 44.800781 C 4.980469 46.445312 5.667969 47.046875 7.292969 47.070312 C 7.921875 47.078125 8.546875 47.078125 9.175781 47.070312 C 10.789062 47.050781 11.546875 46.433594 11.816406 44.835938 C 12.183594 42.6875 12.460938 40.519531 12.882812 38.382812 C 13.179688 36.878906 13.320312 35.1875 14.125 33.980469 C 15.316406 32.191406 16.078125 30.382812 16.113281 28.273438 C 16.160156 25.539062 16.136719 22.804688 16.125 20.070312 C 16.117188 18.003906 15.207031 16.46875 13.242188 15.792969 C 9.902344 14.640625 6.507812 14.640625 3.175781 15.820312 C 1.332031 16.46875 0.429688 17.9375 0.40625 19.90625 C 0.386719 21.378906 0.402344 22.855469 0.402344 24.324219 Z M 14.445312 7.164062 C 14.464844 3.589844 11.675781 0.707031 8.15625 0.667969 C 4.71875 0.625 1.746094 3.566406 1.695312 7.058594 C 1.648438 10.554688 4.511719 13.457031 8.046875 13.496094 C 11.628906 13.53125 14.421875 10.765625 14.445312 7.164062 Z M 14.445312 7.164062 " fill-opacity="1" fill-rule="nonzero"/></g><g clip-path="url(#id42)"><path fill="#000000" d="M 0.402344 24.324219 C 0.402344 22.855469 0.386719 21.378906 0.40625 19.90625 C 0.429688 17.9375 1.332031 16.46875 3.175781 15.820312 C 6.507812 14.640625 9.902344 14.640625 13.242188 15.792969 C 15.207031 16.46875 16.117188 18.003906 16.125 20.070312 C 16.136719 22.804688 16.164062 25.539062 16.113281 28.273438 C 16.078125 30.382812 15.316406 32.191406 14.125 33.980469 C 13.320312 35.1875 13.179688 36.878906 12.882812 38.382812 C 12.460938 40.519531 12.183594 42.6875 11.816406 44.835938 C 11.546875 46.433594 10.789062 47.050781 9.175781 47.070312 C 8.546875 47.078125 7.921875 47.078125 7.292969 47.070312 C 5.667969 47.046875 4.980469 46.445312 4.703125 44.800781 C 4.203125 41.863281 3.753906 38.921875 3.175781 36.003906 C 3.003906 35.144531 2.558594 34.296875 2.066406 33.558594 C 1.058594 32.046875 0.457031 30.429688 0.417969 28.617188 C 0.386719 27.1875 0.410156 25.753906 0.410156 24.324219 C 0.40625 24.324219 0.40625 24.324219 0.402344 24.324219 Z M 0.402344 24.324219 " fill-opacity="1" fill-rule="evenodd"/></g><g clip-path="url(#id43)"><path fill="#000000" d="M 14.445312 7.164062 C 14.421875 10.765625 11.628906 13.53125 8.046875 13.496094 C 4.511719 13.457031 1.648438 10.554688 1.695312 7.058594 C 1.746094 3.566406 4.71875 0.625 8.15625 0.667969 C 11.675781 0.707031 14.464844 3.589844 14.445312 7.164062 Z M 14.445312 7.164062 " fill-opacity="1" fill-rule="evenodd"/></g></g></g></g><g mask="url(#id45)"><g transform="matrix(1, 0, 0, 1, 180, 157)"><g clip-path="url(#id49)"><g clip-path="url(#id46)"><path fill="#000000" d="M 0.277344 24.324219 C 0.28125 24.324219 0.28125 24.324219 0.285156 24.324219 C 0.285156 25.757812 0.261719 27.1875 0.292969 28.617188 C 0.332031 30.429688 0.933594 32.046875 1.941406 33.558594 C 2.433594 34.296875 2.878906 35.144531 3.050781 36.003906 C 3.628906 38.921875 4.078125 41.863281 4.574219 44.800781 C 4.855469 46.445312 5.542969 47.046875 7.167969 47.070312 C 7.792969 47.078125 8.421875 47.078125 9.050781 47.070312 C 10.664062 47.050781 11.421875 46.433594 11.691406 44.835938 C 12.058594 42.6875 12.335938 40.519531 12.757812 38.382812 C 13.054688 36.878906 13.195312 35.1875 14 33.980469 C 15.191406 32.191406 15.953125 30.382812 15.988281 28.273438 C 16.035156 25.539062 16.011719 22.804688 16 20.070312 C 15.992188 18.003906 15.082031 16.46875 13.117188 15.792969 C 9.777344 14.640625 6.382812 14.640625 3.050781 15.820312 C 1.207031 16.46875 0.304688 17.9375 0.28125 19.90625 C 0.261719 21.378906 0.277344 22.855469 0.277344 24.324219 Z M 14.316406 7.164062 C 14.339844 3.589844 11.550781 0.707031 8.03125 0.667969 C 4.59375 0.625 1.621094 3.566406 1.570312 7.058594 C 1.523438 10.554688 4.386719 13.457031 7.921875 13.496094 C 11.503906 13.53125 14.296875 10.765625 14.316406 7.164062 Z M 14.316406 7.164062 " fill-opacity="1" fill-rule="nonzero"/></g><g clip-path="url(#id47)"><path fill="#000000" d="M 0.277344 24.324219 C 0.277344 22.855469 0.261719 21.378906 0.28125 19.90625 C 0.304688 17.9375 1.207031 16.46875 3.050781 15.820312 C 6.382812 14.640625 9.777344 14.640625 13.117188 15.792969 C 15.082031 16.46875 15.992188 18.003906 16 20.070312 C 16.011719 22.804688 16.035156 25.539062 15.988281 28.273438 C 15.953125 30.382812 15.191406 32.191406 14 33.980469 C 13.195312 35.1875 13.054688 36.878906 12.757812 38.382812 C 12.335938 40.519531 12.058594 42.6875 11.691406 44.835938 C 11.421875 46.433594 10.664062 47.050781 9.050781 47.070312 C 8.421875 47.078125 7.792969 47.078125 7.167969 47.070312 C 5.542969 47.046875 4.855469 46.445312 4.574219 44.800781 C 4.078125 41.863281 3.628906 38.921875 3.050781 36.003906 C 2.878906 35.144531 2.433594 34.296875 1.941406 33.558594 C 0.933594 32.046875 0.332031 30.429688 0.292969 28.617188 C 0.261719 27.1875 0.285156 25.753906 0.285156 24.324219 C 0.28125 24.324219 0.28125 24.324219 0.277344 24.324219 Z M 0.277344 24.324219 " fill-opacity="1" fill-rule="evenodd"/></g><g clip-path="url(#id48)"><path fill="#000000" d="M 14.316406 7.164062 C 14.296875 10.765625 11.503906 13.53125 7.921875 13.496094 C 4.386719 13.457031 1.523438 10.554688 1.570312 7.058594 C 1.621094 3.566406 4.59375 0.625 8.03125 0.667969 C 11.550781 0.707031 14.339844 3.589844 14.316406 7.164062 Z M 14.316406 7.164062 " fill-opacity="1" fill-rule="evenodd"/></g></g></g></g><g mask="url(#id50)"><g transform="matrix(1, 0, 0, 1, 150, 157)"><g clip-path="url(#id54)"><g clip-path="url(#id51)"><path fill="#000000" d="M 0.257812 24.324219 C 0.257812 24.324219 0.261719 24.324219 0.265625 24.324219 C 0.265625 25.757812 0.238281 27.1875 0.273438 28.617188 C 0.3125 30.429688 0.914062 32.046875 1.921875 33.558594 C 2.414062 34.296875 2.859375 35.144531 3.03125 36.003906 C 3.609375 38.921875 4.054688 41.863281 4.554688 44.800781 C 4.835938 46.445312 5.519531 47.046875 7.144531 47.070312 C 7.773438 47.078125 8.402344 47.078125 9.03125 47.070312 C 10.640625 47.050781 11.398438 46.433594 11.671875 44.835938 C 12.039062 42.6875 12.316406 40.519531 12.738281 38.382812 C 13.03125 36.878906 13.171875 35.1875 13.980469 33.980469 C 15.171875 32.191406 15.933594 30.382812 15.96875 28.273438 C 16.015625 25.539062 15.992188 22.804688 15.980469 20.070312 C 15.972656 18.003906 15.058594 16.46875 13.097656 15.792969 C 9.757812 14.640625 6.359375 14.640625 3.03125 15.820312 C 1.1875 16.46875 0.285156 17.9375 0.257812 19.90625 C 0.238281 21.378906 0.257812 22.855469 0.257812 24.324219 Z M 14.296875 7.164062 C 14.320312 3.589844 11.53125 0.707031 8.011719 0.667969 C 4.570312 0.625 1.597656 3.566406 1.550781 7.058594 C 1.503906 10.554688 4.367188 13.457031 7.902344 13.496094 C 11.480469 13.53125 14.277344 10.765625 14.296875 7.164062 Z M 14.296875 7.164062 " fill-opacity="1" fill-rule="nonzero"/></g><g clip-path="url(#id52)"><path fill="#000000" d="M 0.257812 24.324219 C 0.257812 22.855469 0.238281 21.378906 0.257812 19.90625 C 0.285156 17.9375 1.1875 16.46875 3.03125 15.820312 C 6.359375 14.640625 9.757812 14.640625 13.097656 15.792969 C 15.058594 16.46875 15.972656 18.003906 15.980469 20.070312 C 15.992188 22.804688 16.015625 25.539062 15.96875 28.273438 C 15.933594 30.382812 15.171875 32.191406 13.980469 33.980469 C 13.171875 35.1875 13.03125 36.878906 12.738281 38.382812 C 12.316406 40.519531 12.039062 42.6875 11.671875 44.835938 C 11.398438 46.433594 10.640625 47.050781 9.03125 47.070312 C 8.402344 47.078125 7.773438 47.078125 7.144531 47.070312 C 5.519531 47.046875 4.835938 46.445312 4.554688 44.800781 C 4.054688 41.863281 3.609375 38.921875 3.03125 36.003906 C 2.859375 35.144531 2.414062 34.296875 1.921875 33.558594 C 0.914062 32.046875 0.3125 30.429688 0.273438 28.617188 C 0.238281 27.1875 0.265625 25.753906 0.265625 24.324219 C 0.261719 24.324219 0.257812 24.324219 0.257812 24.324219 Z M 0.257812 24.324219 " fill-opacity="1" fill-rule="evenodd"/></g><g clip-path="url(#id53)"><path fill="#000000" d="M 14.296875 7.164062 C 14.277344 10.765625 11.480469 13.53125 7.902344 13.496094 C 4.367188 13.457031 1.503906 10.554688 1.550781 7.058594 C 1.597656 3.566406 4.570312 0.625 8.011719 0.667969 C 11.53125 0.707031 14.320312 3.589844 14.296875 7.164062 Z M 14.296875 7.164062 " fill-opacity="1" fill-rule="evenodd"/></g></g></g></g><path fill="#8ccdb0" d="M 196.429688 193.71875 C 196.433594 193.71875 196.433594 193.71875 196.4375 193.71875 C 196.4375 195.304688 196.410156 196.894531 196.445312 198.484375 C 196.492188 200.5 197.160156 202.296875 198.277344 203.976562 C 198.824219 204.792969 199.320312 205.738281 199.511719 206.691406 C 200.152344 209.933594 200.652344 213.203125 201.207031 216.464844 C 201.515625 218.292969 202.277344 218.964844 204.085938 218.988281 C 204.78125 218.996094 205.480469 218.996094 206.179688 218.988281 C 207.96875 218.96875 208.808594 218.277344 209.113281 216.507812 C 209.519531 214.117188 209.828125 211.710938 210.296875 209.335938 C 210.625 207.664062 210.78125 205.785156 211.675781 204.445312 C 213 202.453125 213.847656 200.445312 213.886719 198.101562 C 213.941406 195.0625 213.910156 192.027344 213.898438 188.988281 C 213.890625 186.691406 212.875 184.984375 210.695312 184.234375 C 206.984375 182.957031 203.210938 182.957031 199.507812 184.265625 C 197.460938 184.988281 196.460938 186.621094 196.433594 188.808594 C 196.410156 190.445312 196.429688 192.082031 196.429688 193.71875 Z M 212.03125 174.648438 C 212.054688 170.675781 208.957031 167.476562 205.042969 167.429688 C 201.222656 167.382812 197.921875 170.652344 197.867188 174.527344 C 197.8125 178.417969 200.996094 181.644531 204.921875 181.683594 C 208.902344 181.722656 212.007812 178.652344 212.03125 174.648438 Z M 212.03125 174.648438 " fill-opacity="1" fill-rule="nonzero"/><path fill="#8ccdb0" d="M 196.429688 193.71875 C 196.429688 192.082031 196.410156 190.445312 196.433594 188.808594 C 196.460938 186.621094 197.460938 184.988281 199.507812 184.265625 C 203.210938 182.957031 206.984375 182.957031 210.695312 184.234375 C 212.875 184.984375 213.890625 186.691406 213.898438 188.984375 C 213.910156 192.027344 213.9375 195.0625 213.886719 198.101562 C 213.847656 200.445312 213 202.453125 211.675781 204.445312 C 210.78125 205.785156 210.625 207.664062 210.296875 209.335938 C 209.828125 211.710938 209.519531 214.117188 209.113281 216.507812 C 208.808594 218.277344 207.96875 218.96875 206.179688 218.988281 C 205.480469 218.996094 204.78125 218.996094 204.085938 218.988281 C 202.277344 218.964844 201.515625 218.292969 201.207031 216.464844 C 200.652344 213.203125 200.152344 209.933594 199.511719 206.691406 C 199.320312 205.738281 198.824219 204.792969 198.277344 203.976562 C 197.160156 202.296875 196.492188 200.5 196.445312 198.484375 C 196.410156 196.894531 196.4375 195.304688 196.4375 193.71875 C 196.433594 193.71875 196.433594 193.71875 196.429688 193.71875 Z M 196.429688 193.71875 " fill-opacity="1" fill-rule="evenodd"/><path fill="#8ccdb0" d="M 212.03125 174.648438 C 212.007812 178.652344 208.902344 181.722656 204.921875 181.683594 C 200.996094 181.644531 197.8125 178.417969 197.867188 174.527344 C 197.921875 170.652344 201.222656 167.382812 205.042969 167.429688 C 208.957031 167.476562 212.054688 170.675781 212.03125 174.648438 Z M 212.03125 174.648438 " fill-opacity="1" fill-rule="evenodd"/><path fill="#8ccdb0" d="M 162.519531 193.71875 C 162.523438 193.71875 162.527344 193.71875 162.53125 193.71875 C 162.53125 195.304688 162.503906 196.894531 162.539062 198.484375 C 162.582031 200.5 163.25 202.296875 164.371094 203.976562 C 164.917969 204.792969 165.414062 205.738281 165.601562 206.691406 C 166.246094 209.933594 166.742188 213.203125 167.296875 216.464844 C 167.609375 218.292969 168.371094 218.964844 170.175781 218.988281 C 170.875 218.996094 171.570312 218.996094 172.269531 218.988281 C 174.0625 218.96875 174.902344 218.277344 175.203125 216.507812 C 175.613281 214.117188 175.917969 211.710938 176.386719 209.335938 C 176.714844 207.664062 176.875 205.785156 177.769531 204.445312 C 179.09375 202.453125 179.9375 200.445312 179.980469 198.101562 C 180.03125 195.0625 180.003906 192.027344 179.992188 188.988281 C 179.980469 186.691406 178.96875 184.984375 176.789062 184.234375 C 173.078125 182.957031 169.304688 182.957031 165.601562 184.265625 C 163.554688 184.988281 162.550781 186.621094 162.523438 188.808594 C 162.503906 190.445312 162.519531 192.082031 162.519531 193.71875 Z M 178.121094 174.648438 C 178.144531 170.675781 175.046875 167.476562 171.136719 167.429688 C 167.316406 167.382812 164.011719 170.652344 163.960938 174.527344 C 163.90625 178.417969 167.085938 181.644531 171.015625 181.683594 C 174.992188 181.722656 178.097656 178.652344 178.121094 174.648438 Z M 178.121094 174.648438 " fill-opacity="1" fill-rule="nonzero"/><path fill="#8ccdb0" d="M 162.519531 193.71875 C 162.519531 192.082031 162.503906 190.445312 162.523438 188.808594 C 162.550781 186.621094 163.554688 184.988281 165.601562 184.265625 C 169.304688 182.957031 173.078125 182.957031 176.789062 184.234375 C 178.96875 184.984375 179.980469 186.691406 179.992188 188.984375 C 180.003906 192.027344 180.03125 195.0625 179.980469 198.101562 C 179.9375 200.445312 179.09375 202.453125 177.769531 204.445312 C 176.875 205.785156 176.714844 207.664062 176.386719 209.335938 C 175.917969 211.710938 175.613281 214.117188 175.203125 216.507812 C 174.902344 218.277344 174.0625 218.96875 172.269531 218.988281 C 171.570312 218.996094 170.875 218.996094 170.175781 218.988281 C 168.371094 218.964844 167.609375 218.292969 167.296875 216.464844 C 166.742188 213.203125 166.246094 209.933594 165.601562 206.691406 C 165.414062 205.738281 164.917969 204.792969 164.371094 203.976562 C 163.25 202.296875 162.582031 200.5 162.539062 198.484375 C 162.503906 196.894531 162.53125 195.304688 162.53125 193.71875 C 162.527344 193.71875 162.523438 193.71875 162.519531 193.71875 Z M 162.519531 193.71875 " fill-opacity="1" fill-rule="evenodd"/><path fill="#8ccdb0" d="M 178.121094 174.648438 C 178.097656 178.652344 174.996094 181.722656 171.015625 181.683594 C 167.085938 181.644531 163.90625 178.417969 163.960938 174.527344 C 164.011719 170.652344 167.316406 167.382812 171.136719 167.429688 C 175.046875 167.476562 178.144531 170.675781 178.121094 174.648438 Z M 178.121094 174.648438 " fill-opacity="1" fill-rule="evenodd"/><g mask="url(#id55)"><g transform="matrix(1, 0, 0, 1, 196, 167)"><g clip-path="url(#id59)"><g clip-path="url(#id56)"><path fill="#000000" d="M 0.429688 26.71875 C 0.433594 26.71875 0.433594 26.71875 0.4375 26.71875 C 0.4375 28.304688 0.410156 29.894531 0.445312 31.484375 C 0.492188 33.5 1.160156 35.296875 2.277344 36.976562 C 2.824219 37.792969 3.320312 38.738281 3.511719 39.691406 C 4.152344 42.933594 4.652344 46.203125 5.207031 49.464844 C 5.515625 51.292969 6.277344 51.964844 8.085938 51.988281 C 8.78125 51.996094 9.480469 51.996094 10.179688 51.988281 C 11.96875 51.96875 12.808594 51.277344 13.113281 49.507812 C 13.519531 47.117188 13.828125 44.710938 14.296875 42.335938 C 14.625 40.664062 14.78125 38.785156 15.675781 37.445312 C 17 35.453125 17.847656 33.445312 17.886719 31.101562 C 17.941406 28.0625 17.910156 25.027344 17.898438 21.988281 C 17.890625 19.691406 16.875 17.984375 14.695312 17.234375 C 10.984375 15.957031 7.210938 15.957031 3.507812 17.265625 C 1.460938 17.988281 0.460938 19.621094 0.433594 21.808594 C 0.410156 23.445312 0.429688 25.082031 0.429688 26.71875 Z M 16.03125 7.648438 C 16.054688 3.675781 12.957031 0.476562 9.042969 0.429688 C 5.222656 0.382812 1.921875 3.652344 1.867188 7.527344 C 1.8125 11.417969 4.996094 14.644531 8.921875 14.683594 C 12.902344 14.722656 16.007812 11.652344 16.03125 7.648438 Z M 16.03125 7.648438 " fill-opacity="1" fill-rule="nonzero"/></g><g clip-path="url(#id57)"><path fill="#000000" d="M 0.429688 26.71875 C 0.429688 25.082031 0.410156 23.445312 0.433594 21.808594 C 0.460938 19.621094 1.460938 17.988281 3.507812 17.265625 C 7.210938 15.957031 10.984375 15.957031 14.695312 17.234375 C 16.875 17.984375 17.890625 19.691406 17.898438 21.984375 C 17.910156 25.027344 17.9375 28.0625 17.886719 31.101562 C 17.847656 33.445312 17 35.453125 15.675781 37.445312 C 14.78125 38.785156 14.625 40.664062 14.296875 42.335938 C 13.828125 44.710938 13.519531 47.117188 13.113281 49.507812 C 12.808594 51.277344 11.96875 51.96875 10.179688 51.988281 C 9.480469 51.996094 8.78125 51.996094 8.085938 51.988281 C 6.277344 51.964844 5.515625 51.292969 5.207031 49.464844 C 4.652344 46.203125 4.152344 42.933594 3.511719 39.691406 C 3.320312 38.738281 2.824219 37.792969 2.277344 36.976562 C 1.160156 35.296875 0.492188 33.5 0.445312 31.484375 C 0.410156 29.894531 0.4375 28.304688 0.4375 26.71875 C 0.433594 26.71875 0.433594 26.71875 0.429688 26.71875 Z M 0.429688 26.71875 " fill-opacity="1" fill-rule="evenodd"/></g><g clip-path="url(#id58)"><path fill="#000000" d="M 16.03125 7.648438 C 16.007812 11.652344 12.902344 14.722656 8.921875 14.683594 C 4.996094 14.644531 1.8125 11.417969 1.867188 7.527344 C 1.921875 3.652344 5.222656 0.382812 9.042969 0.429688 C 12.957031 0.476562 16.054688 3.675781 16.03125 7.648438 Z M 16.03125 7.648438 " fill-opacity="1" fill-rule="evenodd"/></g></g></g></g><g mask="url(#id60)"><g transform="matrix(1, 0, 0, 1, 162, 167)"><g clip-path="url(#id64)"><g clip-path="url(#id61)"><path fill="#000000" d="M 0.519531 26.71875 C 0.523438 26.71875 0.527344 26.71875 0.53125 26.71875 C 0.53125 28.304688 0.503906 29.894531 0.539062 31.484375 C 0.582031 33.5 1.25 35.296875 2.371094 36.976562 C 2.917969 37.792969 3.414062 38.738281 3.601562 39.691406 C 4.246094 42.933594 4.742188 46.203125 5.296875 49.464844 C 5.609375 51.292969 6.371094 51.964844 8.175781 51.988281 C 8.875 51.996094 9.570312 51.996094 10.269531 51.988281 C 12.0625 51.96875 12.902344 51.277344 13.203125 49.507812 C 13.613281 47.117188 13.917969 44.710938 14.386719 42.335938 C 14.714844 40.664062 14.875 38.785156 15.769531 37.445312 C 17.09375 35.453125 17.9375 33.445312 17.980469 31.101562 C 18.03125 28.0625 18.003906 25.027344 17.992188 21.988281 C 17.980469 19.691406 16.96875 17.984375 14.789062 17.234375 C 11.078125 15.957031 7.304688 15.957031 3.601562 17.265625 C 1.554688 17.988281 0.550781 19.621094 0.523438 21.808594 C 0.503906 23.445312 0.519531 25.082031 0.519531 26.71875 Z M 16.121094 7.648438 C 16.144531 3.675781 13.046875 0.476562 9.136719 0.429688 C 5.316406 0.382812 2.011719 3.652344 1.960938 7.527344 C 1.90625 11.417969 5.085938 14.644531 9.015625 14.683594 C 12.992188 14.722656 16.097656 11.652344 16.121094 7.648438 Z M 16.121094 7.648438 " fill-opacity="1" fill-rule="nonzero"/></g><g clip-path="url(#id62)"><path fill="#000000" d="M 0.519531 26.71875 C 0.519531 25.082031 0.503906 23.445312 0.523438 21.808594 C 0.550781 19.621094 1.554688 17.988281 3.601562 17.265625 C 7.304688 15.957031 11.078125 15.957031 14.789062 17.234375 C 16.96875 17.984375 17.980469 19.691406 17.992188 21.984375 C 18.003906 25.027344 18.03125 28.0625 17.980469 31.101562 C 17.9375 33.445312 17.09375 35.453125 15.769531 37.445312 C 14.875 38.785156 14.714844 40.664062 14.386719 42.335938 C 13.917969 44.710938 13.613281 47.117188 13.203125 49.507812 C 12.902344 51.277344 12.0625 51.96875 10.269531 51.988281 C 9.570312 51.996094 8.875 51.996094 8.175781 51.988281 C 6.371094 51.964844 5.609375 51.292969 5.296875 49.464844 C 4.742188 46.203125 4.246094 42.933594 3.601562 39.691406 C 3.414062 38.738281 2.917969 37.792969 2.371094 36.976562 C 1.25 35.296875 0.582031 33.5 0.539062 31.484375 C 0.503906 29.894531 0.53125 28.304688 0.53125 26.71875 C 0.527344 26.71875 0.523438 26.71875 0.519531 26.71875 Z M 0.519531 26.71875 " fill-opacity="1" fill-rule="evenodd"/></g><g clip-path="url(#id63)"><path fill="#000000" d="M 16.121094 7.648438 C 16.097656 11.652344 12.996094 14.722656 9.015625 14.683594 C 5.085938 14.644531 1.90625 11.417969 1.960938 7.527344 C 2.011719 3.652344 5.316406 0.382812 9.136719 0.429688 C 13.046875 0.476562 16.144531 3.675781 16.121094 7.648438 Z M 16.121094 7.648438 " fill-opacity="1" fill-rule="evenodd"/></g></g></g></g><g clip-path="url(#id65)"><path fill="#8ccdb0" d="M 177.898438 202.992188 C 177.902344 202.992188 177.90625 202.992188 177.910156 202.992188 C 177.910156 204.757812 177.878906 206.527344 177.917969 208.292969 C 177.96875 210.527344 178.710938 212.527344 179.957031 214.390625 C 180.5625 215.300781 181.113281 216.351562 181.324219 217.410156 C 182.039062 221.011719 182.59375 224.648438 183.207031 228.269531 C 183.554688 230.300781 184.398438 231.046875 186.40625 231.070312 C 187.183594 231.082031 187.957031 231.082031 188.734375 231.074219 C 190.722656 231.050781 191.65625 230.285156 191.992188 228.316406 C 192.449219 225.660156 192.789062 222.988281 193.308594 220.347656 C 193.671875 218.492188 193.847656 216.402344 194.839844 214.914062 C 196.316406 212.703125 197.253906 210.46875 197.296875 207.867188 C 197.355469 204.492188 197.328125 201.113281 197.3125 197.738281 C 197.300781 195.1875 196.175781 193.292969 193.753906 192.457031 C 189.628906 191.035156 185.4375 191.039062 181.324219 192.492188 C 179.050781 193.292969 177.9375 195.109375 177.902344 197.539062 C 177.878906 199.355469 177.898438 201.175781 177.898438 202.992188 Z M 195.234375 181.804688 C 195.261719 177.390625 191.820312 173.835938 187.472656 173.785156 C 183.230469 173.734375 179.558594 177.367188 179.5 181.671875 C 179.441406 185.992188 182.976562 189.578125 187.339844 189.621094 C 191.761719 189.667969 195.207031 186.253906 195.234375 181.804688 Z M 195.234375 181.804688 " fill-opacity="1" fill-rule="nonzero"/></g><g clip-path="url(#id66)"><path fill="#8ccdb0" d="M 177.898438 202.992188 C 177.898438 201.175781 177.878906 199.355469 177.902344 197.539062 C 177.9375 195.109375 179.050781 193.292969 181.324219 192.492188 C 185.4375 191.039062 189.628906 191.035156 193.753906 192.457031 C 196.175781 193.292969 197.300781 195.1875 197.3125 197.738281 C 197.328125 201.113281 197.355469 204.492188 197.296875 207.867188 C 197.253906 210.46875 196.316406 212.703125 194.839844 214.914062 C 193.847656 216.402344 193.671875 218.492188 193.308594 220.347656 C 192.789062 222.988281 192.449219 225.660156 191.996094 228.316406 C 191.65625 230.285156 190.722656 231.050781 188.734375 231.074219 C 187.957031 231.082031 187.183594 231.082031 186.40625 231.070312 C 184.398438 231.046875 183.554688 230.300781 183.207031 228.269531 C 182.59375 224.648438 182.039062 221.011719 181.324219 217.410156 C 181.113281 216.351562 180.5625 215.300781 179.957031 214.390625 C 178.710938 212.527344 177.96875 210.527344 177.917969 208.292969 C 177.878906 206.527344 177.910156 204.757812 177.910156 202.992188 C 177.90625 202.992188 177.902344 202.992188 177.898438 202.992188 Z M 177.898438 202.992188 " fill-opacity="1" fill-rule="evenodd"/></g><path fill="#8ccdb0" d="M 195.234375 181.804688 C 195.207031 186.253906 191.761719 189.667969 187.339844 189.621094 C 182.976562 189.578125 179.441406 185.992188 179.5 181.671875 C 179.558594 177.367188 183.230469 173.734375 187.472656 173.785156 C 191.820312 173.835938 195.261719 177.390625 195.234375 181.804688 Z M 195.234375 181.804688 " fill-opacity="1" fill-rule="evenodd"/><g clip-path="url(#id67)"><g mask="url(#id68)"><g transform="matrix(1, 0, 0, 1, 177, 173)"><g clip-path="url(#id72)"><g clip-path="url(#id69)"><path fill="#ffffff" d="M 0.898438 29.992188 C 0.902344 29.992188 0.90625 29.992188 0.910156 29.992188 C 0.910156 31.757812 0.878906 33.527344 0.917969 35.292969 C 0.96875 37.527344 1.710938 39.527344 2.957031 41.390625 C 3.5625 42.300781 4.113281 43.351562 4.324219 44.410156 C 5.039062 48.011719 5.59375 51.648438 6.207031 55.269531 C 6.554688 57.300781 7.398438 58.046875 9.40625 58.070312 C 10.183594 58.082031 10.957031 58.082031 11.734375 58.074219 C 13.722656 58.050781 14.65625 57.285156 14.992188 55.316406 C 15.449219 52.660156 15.789062 49.988281 16.308594 47.347656 C 16.671875 45.492188 16.847656 43.402344 17.839844 41.914062 C 19.316406 39.703125 20.253906 37.46875 20.296875 34.867188 C 20.355469 31.492188 20.328125 28.113281 20.3125 24.738281 C 20.300781 22.1875 19.175781 20.292969 16.753906 19.457031 C 12.628906 18.035156 8.4375 18.039062 4.324219 19.492188 C 2.050781 20.292969 0.9375 22.109375 0.902344 24.539062 C 0.878906 26.355469 0.898438 28.175781 0.898438 29.992188 Z M 18.234375 8.804688 C 18.261719 4.390625 14.820312 0.835938 10.472656 0.785156 C 6.230469 0.734375 2.558594 4.367188 2.5 8.671875 C 2.441406 12.992188 5.976562 16.578125 10.339844 16.621094 C 14.761719 16.667969 18.207031 13.253906 18.234375 8.804688 Z M 18.234375 8.804688 " fill-opacity="1" fill-rule="nonzero"/></g><g clip-path="url(#id70)"><path fill="#ffffff" d="M 0.898438 29.992188 C 0.898438 28.175781 0.878906 26.355469 0.902344 24.539062 C 0.9375 22.109375 2.050781 20.292969 4.324219 19.492188 C 8.4375 18.039062 12.628906 18.035156 16.753906 19.457031 C 19.175781 20.292969 20.300781 22.1875 20.3125 24.738281 C 20.328125 28.113281 20.355469 31.492188 20.296875 34.867188 C 20.253906 37.46875 19.316406 39.703125 17.839844 41.914062 C 16.847656 43.402344 16.671875 45.492188 16.308594 47.347656 C 15.789062 49.988281 15.449219 52.660156 14.996094 55.316406 C 14.65625 57.285156 13.722656 58.050781 11.734375 58.074219 C 10.957031 58.082031 10.183594 58.082031 9.40625 58.070312 C 7.398438 58.046875 6.554688 57.300781 6.207031 55.269531 C 5.59375 51.648438 5.039062 48.011719 4.324219 44.410156 C 4.113281 43.351562 3.5625 42.300781 2.957031 41.390625 C 1.710938 39.527344 0.96875 37.527344 0.917969 35.292969 C 0.878906 33.527344 0.910156 31.757812 0.910156 29.992188 C 0.90625 29.992188 0.902344 29.992188 0.898438 29.992188 Z M 0.898438 29.992188 " fill-opacity="1" fill-rule="evenodd"/></g><g clip-path="url(#id71)"><path fill="#ffffff" d="M 18.234375 8.804688 C 18.207031 13.253906 14.761719 16.667969 10.339844 16.621094 C 5.976562 16.578125 2.441406 12.992188 2.5 8.671875 C 2.558594 4.367188 6.230469 0.734375 10.472656 0.785156 C 14.820312 0.835938 18.261719 4.390625 18.234375 8.804688 Z M 18.234375 8.804688 " fill-opacity="1" fill-rule="evenodd"/></g></g></g></g></g></svg>